<svg width="286" height="151" viewBox="0 0 286 151" fill="none" xmlns="http://www.w3.org/2000/svg">
<path d="M213.266 97.637C210.837 107.289 206 116.025 199.29 122.882C192.579 129.74 184.255 134.452 175.236 136.501C166.216 138.549 156.85 137.853 148.171 134.49C139.492 131.128 131.837 125.228 126.049 117.443L164.991 83.3102L213.266 97.637Z" fill="#60B8EF"/>
<ellipse cx="53.6417" cy="50.7949" rx="53.6417" ry="50.7949" transform="matrix(-0.382902 -0.923789 0.898456 -0.439064 194.726 150.811)" fill="#60B8EF"/>
<ellipse cx="100.172" cy="54.3411" rx="50.0461" ry="54.3411" fill="#60B8EF"/>
<ellipse cx="164.609" cy="61.1406" rx="50.0461" ry="54.3411" fill="#60B8EF"/>
<ellipse cx="50.0461" cy="78.1638" rx="50.0461" ry="54.3411" fill="#60B8EF"/>
<ellipse cx="113.96" cy="89.9485" rx="50.0461" ry="54.3411" fill="#60B8EF"/>
<path d="M207.712 94.3295C205.482 102.487 201.044 109.87 194.886 115.666C188.728 121.461 181.089 125.444 172.812 127.175C164.534 128.906 155.94 128.318 147.975 125.476C140.011 122.634 132.985 117.649 127.674 111.068L163.41 82.2212L207.712 94.3295Z" fill="#DFF3FF"/>
<circle cx="213.729" cy="78.5404" r="45.9267" transform="rotate(-114.231 213.729 78.5404)" fill="#DFF3FF"/>
<circle cx="103.927" cy="57.7377" r="45.9267" fill="#DFF3FF"/>
<circle cx="163.06" cy="63.4843" r="45.9267" fill="#DFF3FF"/>
<circle cx="57.9267" cy="77.871" r="45.9267" fill="#DFF3FF"/>
<circle cx="116.58" cy="87.831" r="45.9267" fill="#DFF3FF"/>
<path d="M53.4 78.36C53.72 79.64 53.9067 80.9467 53.96 82.28C54.04 83.6133 53.96 84.9333 53.72 86.24C53.5867 86.8533 53.4 87.4533 53.16 88.04C52.9467 88.6267 52.6533 89.1867 52.28 89.72C51.9067 90.2 51.48 90.6133 51 90.96C50.52 91.3067 49.9733 91.5467 49.36 91.68C47.92 92.0267 46.5067 91.9333 45.12 91.4C43.76 90.84 42.5867 90.04 41.6 89C41.5733 89.0533 41.5467 89.12 41.52 89.2C41.52 89.28 41.4933 89.3467 41.44 89.4C41.3067 89.7733 41.1333 90.12 40.92 90.44C40.7333 90.76 40.4933 91.04 40.2 91.28C39.8533 91.5733 39.4667 91.8133 39.04 92C38.64 92.1867 38.2133 92.2667 37.76 92.24C36.88 92.1867 36.12 91.84 35.48 91.2C34.84 90.56 34.3467 89.8667 34 89.12C33.6267 88.2133 33.3733 87.2267 33.24 86.16C33.16 85.5467 33.0933 84.9333 33.04 84.32C33.0133 83.7067 33.0133 83.0933 33.04 82.48C33.0667 81.2 33.1467 79.96 33.28 78.76C33.4133 77.5333 33.52 76.2933 33.6 75.04C33.6267 74.4267 33.64 73.8133 33.64 73.2C33.64 72.56 33.6533 71.9333 33.68 71.32C33.7067 70.68 33.7333 70.0533 33.76 69.44C33.8133 68.8 33.8933 68.1733 34 67.56C34.1067 67.0267 34.2133 66.5067 34.32 66C34.4533 65.4667 34.64 64.9733 34.88 64.52C35.2533 63.8267 35.7333 63.2933 36.32 62.92C36.8533 62.5467 37.4533 62.32 38.12 62.24C38.7867 62.1333 39.4133 62.2533 40 62.6C40.7733 63.0267 41.32 63.68 41.64 64.56C41.96 65.4133 42.12 66.2533 42.12 67.08C42.1467 67.6667 42.12 68.24 42.04 68.8C41.9867 69.36 41.9333 69.92 41.88 70.48C41.8267 71.04 41.7867 71.6 41.76 72.16C41.76 72.72 41.7467 73.28 41.72 73.84C41.6933 74.2667 41.68 74.6933 41.68 75.12C41.68 75.52 41.6667 75.9333 41.64 76.36C41.8267 76.0667 42.0267 75.8 42.24 75.56C42.48 75.2933 42.7067 75.04 42.92 74.8C43.2667 74.4533 43.6267 74.1333 44 73.84C44.3733 73.52 44.7733 73.24 45.2 73C45.5733 72.7867 45.9733 72.5867 46.4 72.4C46.8267 72.2133 47.2667 72.0933 47.72 72.04C48.5733 71.9333 49.32 72.08 49.96 72.48C50.6 72.88 51.1467 73.4133 51.6 74.08C52.0533 74.72 52.4267 75.4267 52.72 76.2C53.0133 76.9733 53.24 77.6933 53.4 78.36ZM42.36 81.72C42.1467 82.4667 42.1867 83.2 42.48 83.92C42.72 84.48 43.0933 84.9333 43.6 85.28C44.1067 85.6 44.6667 85.6933 45.28 85.56C45.84 85.4533 46.3067 85.2133 46.68 84.84C47.0533 84.44 47.2933 83.96 47.4 83.4C47.48 82.92 47.4533 82.4267 47.32 81.92C47.2133 81.3867 46.9733 80.9333 46.6 80.56C46.4133 80.4 46.2133 80.2667 46 80.16C45.7867 80.0267 45.56 79.9467 45.32 79.92C44.92 79.8933 44.52 79.9333 44.12 80.04C44.12 80.04 44.0933 80.0667 44.04 80.12C43.2133 80.3867 42.6533 80.92 42.36 81.72ZM46.64 73.48C46.6133 73.6133 46.64 73.7733 46.72 73.96C46.8533 74.1733 47.0267 74.36 47.24 74.52C47.4533 74.6533 47.6667 74.7867 47.88 74.92C48.1733 75.08 48.4667 75.2267 48.76 75.36C49.0533 75.4933 49.3467 75.6267 49.64 75.76C49.7733 75.8133 49.8933 75.8667 50 75.92C50.1067 75.9733 50.2267 76.0267 50.36 76.08C50.4933 76.16 50.6133 76.2533 50.72 76.36C50.8533 76.4667 50.9867 76.5733 51.12 76.68C51.4667 77.0533 51.7733 77.44 52.04 77.84C52.3067 78.24 52.5467 78.6533 52.76 79.08C52.8667 79.2667 52.9467 79.4533 53 79.64C53.08 79.8267 53.16 80 53.24 80.16C53.1867 80.0267 53.16 79.88 53.16 79.72C53.16 79.5333 53.1333 79.36 53.08 79.2C52.9467 78.48 52.76 77.76 52.52 77.04C52.28 76.32 51.9733 75.6267 51.6 74.96C51.2533 74.3467 50.8 73.7867 50.24 73.28C49.68 72.7467 49.0133 72.48 48.24 72.48C47.8933 72.48 47.4933 72.5467 47.04 72.68C47.04 72.7333 47.0267 72.7733 47 72.8C46.92 72.9067 46.84 73.0133 46.76 73.12C46.7067 73.2267 46.6667 73.3467 46.64 73.48ZM39.96 63.12C39.4267 62.7733 38.8533 62.6267 38.24 62.68H38.16L38.08 62.76C37.9733 62.8133 37.88 62.88 37.8 62.96C37.72 63.0133 37.6533 63.0933 37.6 63.2C37.52 63.3067 37.5067 63.44 37.56 63.6C37.6133 63.8933 37.7467 64.16 37.96 64.4C38.1733 64.6133 38.3867 64.8133 38.6 65C38.84 65.24 39.08 65.4667 39.32 65.68C39.5867 65.8933 39.84 66.1067 40.08 66.32C40.3733 66.5867 40.6 66.88 40.76 67.2C40.92 67.4933 41.0667 67.8267 41.2 68.2C41.28 68.3867 41.3333 68.5733 41.36 68.76C41.4133 68.92 41.4667 69.0933 41.52 69.28C41.5467 69.0667 41.56 68.8667 41.56 68.68C41.5867 68.4667 41.6133 68.2533 41.64 68.04C41.6667 67.48 41.6533 66.9467 41.6 66.44C41.5467 65.9067 41.4267 65.3733 41.24 64.84C41.1067 64.4933 40.9333 64.1733 40.72 63.88C40.5067 63.5867 40.2533 63.3333 39.96 63.12ZM43.24 85.6C42.6533 85.2 42.2267 84.64 41.96 83.92C41.9333 83.9733 41.92 84.04 41.92 84.12C41.92 84.1733 41.9067 84.2267 41.88 84.28C41.9067 84.3867 41.92 84.4933 41.92 84.6C41.92 84.68 41.92 84.76 41.92 84.84C41.9467 84.9733 41.96 85.1467 41.96 85.36C42.0667 85.76 42.2533 86.1333 42.52 86.48C42.7867 86.8 43.12 87.0267 43.52 87.16C43.7333 87.24 43.9733 87.28 44.24 87.28C44.5067 87.28 44.7467 87.2133 44.96 87.08C45.0667 86.9733 45.1067 86.8533 45.08 86.72C45.0267 86.5867 44.9467 86.48 44.84 86.4C44.76 86.2933 44.6667 86.2 44.56 86.12C44.5333 86.12 44.5067 86.1067 44.48 86.08C44.2667 86.0267 44.0533 85.9733 43.84 85.92C43.6267 85.84 43.4267 85.7333 43.24 85.6ZM74.1678 82.6C74.2211 83.5333 74.1811 84.4667 74.0478 85.4C73.9411 86.3067 73.7811 87.2267 73.5678 88.16C73.4611 88.8267 73.2611 89.48 72.9678 90.12C72.8345 90.4133 72.6878 90.6933 72.5278 90.96C72.3945 91.2 72.2078 91.4267 71.9678 91.64C71.4878 92.0667 70.9678 92.2267 70.4078 92.12C70.0611 92.0667 69.7278 91.9333 69.4078 91.72C69.0878 91.5067 68.8078 91.2667 68.5678 91C68.1145 90.5467 67.7811 90.0133 67.5678 89.4C67.3545 88.7867 67.2078 88.16 67.1278 87.52C66.8078 88.1333 66.4211 88.76 65.9678 89.4C65.5145 89.96 65.0211 90.48 64.4878 90.96C63.9545 91.44 63.3411 91.8133 62.6478 92.08C62.0345 92.32 61.4211 92.3867 60.8078 92.28C60.1945 92.2 59.6345 91.9333 59.1278 91.48C58.8078 91.2133 58.5278 90.9067 58.2878 90.56C58.0478 90.1867 57.8345 89.8133 57.6478 89.44C57.2211 88.48 56.9145 87.5333 56.7278 86.6C56.4611 85.56 56.2745 84.5067 56.1678 83.44C56.0878 82.3733 56.0345 81.2933 56.0078 80.2C56.0078 79.16 56.0478 78.12 56.1278 77.08C56.1811 76.6267 56.2211 76.1733 56.2478 75.72C56.3011 75.2667 56.3945 74.8133 56.5278 74.36C56.6078 73.9867 56.7411 73.64 56.9278 73.32C57.1145 73 57.3545 72.72 57.6478 72.48C57.9678 72.24 58.3278 72.0667 58.7278 71.96C59.1545 71.8267 59.5678 71.7333 59.9678 71.68C60.3678 71.6267 60.7811 71.6267 61.2078 71.68C61.6611 71.7067 62.0745 71.8267 62.4478 72.04C62.5811 72.12 62.7145 72.2133 62.8478 72.32C63.0078 72.4267 63.1411 72.56 63.2478 72.72C63.3811 73.0133 63.4745 73.3467 63.5278 73.72C63.6611 74.5467 63.6745 75.3733 63.5678 76.2C63.4878 77.0267 63.4211 77.8533 63.3678 78.68C63.3411 79.1333 63.3278 79.5867 63.3278 80.04C63.3278 80.4933 63.3278 80.9467 63.3278 81.4C63.3545 81.9867 63.3811 82.5733 63.4078 83.16C63.4345 83.7467 63.5145 84.3333 63.6478 84.92C63.7011 85.1333 63.7545 85.3467 63.8078 85.56C63.8878 85.7467 63.9945 85.92 64.1278 86.08L64.1678 86.12C64.1678 86.1467 64.1811 86.16 64.2078 86.16V86.2C64.2078 86.2 64.2211 86.2 64.2478 86.2L64.3278 86.28H64.3678L64.4478 86.32H64.6078C64.6345 86.2933 64.6611 86.28 64.6878 86.28C64.7145 86.28 64.7411 86.2667 64.7678 86.24C64.8211 86.24 64.8878 86.2 64.9678 86.12C65.0478 86.0933 65.1411 86.0267 65.2478 85.92C65.4611 85.7067 65.6211 85.4933 65.7278 85.28C65.9145 84.9333 66.0611 84.5867 66.1678 84.24C66.2745 83.8933 66.3811 83.5333 66.4878 83.16C66.6478 82.5467 66.7811 81.9333 66.8878 81.32C66.9945 80.7067 67.1011 80.0933 67.2078 79.48C67.1811 78.9733 67.1678 78.48 67.1678 78C67.1945 77.52 67.2345 77.0267 67.2878 76.52C67.3411 76.0133 67.4078 75.5067 67.4878 75C67.5945 74.4933 67.7811 74.0267 68.0478 73.6C68.2611 73.3067 68.5011 73.0533 68.7678 72.84C69.0345 72.6 69.3411 72.4267 69.6878 72.32C69.7411 72.2933 69.8478 72.2533 70.0078 72.2C70.0611 72.2 70.1011 72.2133 70.1278 72.24C70.5811 72.1867 71.0345 72.2533 71.4878 72.44C71.9678 72.6267 72.3545 72.9067 72.6478 73.28C72.9411 73.6533 73.1411 74.0533 73.2478 74.48C73.3811 74.9067 73.4745 75.3467 73.5278 75.8C73.5811 76.0133 73.6078 76.24 73.6078 76.48C73.6078 76.6933 73.6211 76.92 73.6478 77.16C73.6745 77.4533 73.7011 77.76 73.7278 78.08C73.7545 78.3733 73.7945 78.6667 73.8478 78.96C73.9278 79.5733 73.9945 80.1867 74.0478 80.8C74.1011 81.3867 74.1411 81.9867 74.1678 82.6ZM60.2078 72.12C59.9945 72.2533 59.8078 72.3867 59.6478 72.52C59.4878 72.6533 59.3678 72.8267 59.2878 73.04C59.1811 73.2533 59.1411 73.4667 59.1678 73.68C59.2211 73.8933 59.3145 74.0933 59.4478 74.28C59.7145 74.6533 60.0478 74.9467 60.4478 75.16C60.8478 75.3733 61.2078 75.6533 61.5278 76C61.8211 76.32 62.0611 76.7067 62.2478 77.16C62.4345 77.5867 62.5945 78.0267 62.7278 78.48C62.7545 78.5867 62.7678 78.6933 62.7678 78.8C62.7945 78.9067 62.8211 79.0267 62.8478 79.16V79.12C62.8745 78.3467 62.9411 77.5733 63.0478 76.8C63.1545 76 63.1811 75.2133 63.1278 74.44C63.1011 74.12 63.0478 73.7867 62.9678 73.44C62.9145 73.0933 62.7411 72.8133 62.4478 72.6C62.1278 72.3867 61.7678 72.2533 61.3678 72.2C60.9678 72.12 60.5811 72.0933 60.2078 72.12ZM69.5278 73.2C69.4745 73.4933 69.5945 73.7333 69.8878 73.92C70.0211 74.0533 70.1678 74.16 70.3278 74.24C70.4878 74.32 70.6478 74.4133 70.8078 74.52C70.9411 74.6 71.0611 74.6933 71.1678 74.8C71.2745 74.88 71.3945 74.9733 71.5278 75.08C71.8211 75.2933 72.1011 75.5333 72.3678 75.8C72.6611 76.0667 72.9145 76.3733 73.1278 76.72C73.1011 76.32 73.0611 75.92 73.0078 75.52C72.9545 75.12 72.8611 74.7467 72.7278 74.4C72.5945 74.0533 72.4078 73.7467 72.1678 73.48C71.9278 73.1867 71.5945 72.9733 71.1678 72.84C70.7411 72.68 70.2878 72.6667 69.8078 72.8C69.6478 72.9067 69.5545 73.04 69.5278 73.2ZM63.2878 85.44C63.2345 85.3067 63.1945 85.1733 63.1678 85.04C63.1678 84.9067 63.1411 84.7733 63.0878 84.64C63.0878 84.7733 63.0745 84.92 63.0478 85.08C63.0478 85.2133 63.0478 85.3467 63.0478 85.48C63.0211 85.6933 63.0078 85.9333 63.0078 86.2C63.0345 86.44 63.0745 86.6667 63.1278 86.88C63.2078 87.2533 63.3945 87.5867 63.6878 87.88C63.7411 87.9333 63.7945 87.9733 63.8478 88C63.9011 88.0267 63.9545 88.0533 64.0078 88.08C64.0611 88.08 64.1011 88.0933 64.1278 88.12C64.1545 88.12 64.1945 88.1067 64.2478 88.08C64.4345 88.0533 64.5945 87.96 64.7278 87.8C64.8611 87.64 64.9545 87.4533 65.0078 87.24C65.0611 87.1333 65.0878 87.04 65.0878 86.96V86.84C65.0878 86.8133 65.0745 86.8 65.0478 86.8C65.0478 86.8 65.0478 86.7867 65.0478 86.76C65.0478 86.7333 65.0345 86.72 65.0078 86.72H64.8878C64.6745 86.8 64.4745 86.8133 64.2878 86.76C64.1278 86.7067 63.9811 86.6133 63.8478 86.48C63.7145 86.3467 63.5945 86.1867 63.4878 86C63.4078 85.7867 63.3411 85.6 63.2878 85.44ZM94.7631 80.24C94.8698 81.4933 94.9365 82.7333 94.9631 83.96C94.9898 85.1867 94.9765 86.4267 94.9231 87.68C94.8698 88.2933 94.8165 88.8933 94.7631 89.48C94.7365 90.0667 94.6831 90.6667 94.6031 91.28C94.5498 91.76 94.4831 92.24 94.4031 92.72C94.3498 93.2 94.2698 93.68 94.1631 94.16C94.0031 94.9067 93.7898 95.64 93.5231 96.36C93.2565 97.1067 92.8965 97.8 92.4431 98.44C91.6165 99.64 90.5765 100.533 89.3231 101.12C88.6031 101.467 87.8431 101.693 87.0431 101.8C86.2698 101.933 85.4965 101.987 84.7231 101.96C83.8431 101.907 82.9498 101.8 82.0431 101.64C81.1365 101.48 80.2831 101.213 79.4831 100.84C78.7098 100.467 78.0431 99.96 77.4831 99.32C76.9231 98.68 76.5498 97.9333 76.3631 97.08C76.2031 96.3067 76.1631 95.5333 76.2431 94.76C76.2698 94.3867 76.3231 94 76.4031 93.6C76.5098 93.2 76.6698 92.84 76.8831 92.52C77.0965 92.2267 77.3631 91.9867 77.6831 91.8C78.0298 91.6133 78.3898 91.5467 78.7631 91.6C79.1631 91.68 79.5231 91.84 79.8431 92.08C80.1898 92.3467 80.5098 92.6267 80.8031 92.92C81.0965 93.2133 81.3765 93.5067 81.6431 93.8C81.9365 94.12 82.2298 94.4267 82.5231 94.72C83.0298 95.1733 83.5498 95.52 84.0831 95.76C84.1898 95.8133 84.2965 95.8533 84.4031 95.88C84.5098 95.9333 84.6165 95.9733 84.7231 96C84.8565 96.0267 84.9498 96.04 85.0031 96.04C85.0831 96.0667 85.1898 96.08 85.3231 96.08C85.4831 96.08 85.6431 96.0667 85.8031 96.04C85.9631 96.0133 86.1098 95.9467 86.2431 95.84C86.5631 95.6533 86.8298 95.3867 87.0431 95.04C87.2831 94.72 87.4698 94.3733 87.6031 94C87.7898 93.4933 87.9365 92.9733 88.0431 92.44C88.1498 91.9333 88.2298 91.4133 88.2831 90.88C88.3365 90.48 88.3765 90.08 88.4031 89.68C88.4298 89.28 88.4565 88.88 88.4831 88.48C88.3231 88.96 88.1231 89.4133 87.8831 89.84C87.6431 90.2667 87.3365 90.64 86.9631 90.96C86.6698 91.2267 86.3498 91.4533 86.0031 91.64C85.6565 91.8267 85.2965 91.9467 84.9231 92C84.4965 92.0533 84.0565 92.0533 83.6031 92C83.1765 91.9733 82.7498 91.9067 82.3231 91.8C81.8965 91.6667 81.4698 91.52 81.0431 91.36C80.6165 91.1733 80.2165 90.96 79.8431 90.72C79.7098 90.6133 79.5631 90.5067 79.4031 90.4C79.2698 90.2933 79.1365 90.1733 79.0031 90.04C78.7098 89.6933 78.4698 89.36 78.2831 89.04C77.8298 88.2667 77.4965 87.44 77.2831 86.56C77.0698 85.6533 76.9231 84.7467 76.8431 83.84C76.6831 82.0533 76.7231 80.2933 76.9631 78.56C77.0431 77.84 77.1231 77.1333 77.2031 76.44C77.3098 75.72 77.4965 75.0267 77.7631 74.36C77.8965 74.04 78.0431 73.7333 78.2031 73.44C78.3898 73.12 78.6165 72.8533 78.8831 72.64C78.9098 72.5867 78.9498 72.5333 79.0031 72.48C79.1365 72.3467 79.2831 72.2533 79.4431 72.2C79.6298 72.1467 79.8165 72.1067 80.0031 72.08C80.0565 72.08 80.0965 72.0933 80.1231 72.12C80.2565 72.0933 80.3765 72.08 80.4831 72.08C80.5898 72.08 80.7098 72.08 80.8431 72.08C81.4831 72.16 82.0298 72.4267 82.4831 72.88C82.9098 73.3867 83.1765 73.9333 83.2831 74.52C83.4431 75.1867 83.5231 75.8533 83.5231 76.52C83.5498 77.1867 83.5365 77.8533 83.4831 78.52C83.4831 78.7867 83.4831 79.0533 83.4831 79.32C83.4831 79.56 83.4698 79.8133 83.4431 80.08C83.3631 80.6933 83.3231 81.28 83.3231 81.84C83.2698 82.5867 83.2831 83.2667 83.3631 83.88C83.4165 84.1733 83.4698 84.4667 83.5231 84.76C83.6031 85.0533 83.7098 85.32 83.8431 85.56C84.1631 86.0133 84.5631 86.24 85.0431 86.24C85.5231 86.2667 85.9631 86.08 86.3631 85.68C86.5765 85.4667 86.7498 85.2267 86.8831 84.96C87.0165 84.6667 87.1498 84.3733 87.2831 84.08C87.4165 83.7333 87.5365 83.3867 87.6431 83.04C87.7498 82.6933 87.8431 82.3333 87.9231 81.96C88.0565 81.3733 88.1631 80.7867 88.2431 80.2C88.3231 79.6133 88.3631 79.0267 88.3631 78.44C88.3631 78.4133 88.3765 78.3867 88.4031 78.36C88.3765 78.28 88.3631 78.16 88.3631 78C88.3098 77.3867 88.2831 76.7867 88.2831 76.2C88.2831 75.6133 88.3498 75.04 88.4831 74.48C88.5365 74.1867 88.6165 73.8933 88.7231 73.6C88.8565 73.28 89.0165 73 89.2031 72.76C89.4165 72.52 89.6565 72.3333 89.9231 72.2C90.1898 72.04 90.4965 71.96 90.8431 71.96C91.4565 71.9867 92.0031 72.2133 92.4831 72.64C92.9898 73.0667 93.3898 73.5467 93.6831 74.08C93.8965 74.48 94.0431 74.8933 94.1231 75.32C94.2298 75.72 94.3098 76.1467 94.3631 76.6C94.4698 77.2133 94.5498 77.8267 94.6031 78.44C94.6565 79.0267 94.7098 79.6267 94.7631 80.24ZM90.0431 73.36C90.0165 73.52 90.0298 73.68 90.0831 73.84C90.1631 73.9733 90.2431 74.1067 90.3231 74.24C90.5365 74.5333 90.7898 74.8133 91.0831 75.08C91.3765 75.32 91.6698 75.5467 91.9631 75.76C92.4965 76.1333 92.9498 76.5867 93.3231 77.12C93.6965 77.6533 93.9765 78.2267 94.1631 78.84C94.1365 78.5733 94.1098 78.3067 94.0831 78.04C94.0565 77.7733 94.0298 77.5067 94.0031 77.24C93.9231 76.7867 93.8431 76.3333 93.7631 75.88C93.7098 75.4 93.5765 74.9467 93.3631 74.52C93.1231 74.0667 92.7898 73.6267 92.3631 73.2C91.9631 72.7467 91.4831 72.4933 90.9231 72.44C90.9231 72.4933 90.8965 72.52 90.8431 72.52C90.6565 72.6267 90.4831 72.7467 90.3231 72.88C90.1898 72.9867 90.0965 73.1467 90.0431 73.36ZM79.2831 72.92C79.2831 73.0267 79.2965 73.1067 79.3231 73.16C79.3765 73.32 79.4298 73.44 79.4831 73.52C79.6165 73.7867 79.7898 74.0267 80.0031 74.24C80.2431 74.4533 80.4831 74.6667 80.7231 74.88C81.0698 75.12 81.3898 75.3867 81.6831 75.68C82.0031 75.9467 82.2831 76.2667 82.5231 76.64C82.7898 77.04 82.9631 77.4267 83.0431 77.8C83.0698 77.1867 83.0565 76.5733 83.0031 75.96C82.9765 75.32 82.8565 74.7067 82.6431 74.12C82.4565 73.5333 82.1365 73.1067 81.6831 72.84C81.4165 72.7067 81.1098 72.6133 80.7631 72.56C80.4431 72.5067 80.1365 72.5333 79.8431 72.64C79.5765 72.7467 79.3898 72.84 79.2831 72.92ZM82.2431 95.12C81.9231 94.8267 81.6165 94.52 81.3231 94.2C81.0565 93.88 80.7765 93.5733 80.4831 93.28C80.3498 93.1467 80.1898 93 80.0031 92.84C79.8431 92.68 79.6565 92.5333 79.4431 92.4H79.4031C79.2698 92.4533 79.1498 92.52 79.0431 92.6C78.9365 92.7067 78.8565 92.8267 78.8031 92.96C78.7231 93.1733 78.7498 93.4133 78.8831 93.68C78.9898 93.9467 79.1365 94.1867 79.3231 94.4C79.5365 94.64 79.7498 94.84 79.9631 95C80.1231 95.1333 80.2831 95.2267 80.4431 95.28C80.6031 95.36 80.7765 95.44 80.9631 95.52C81.4431 95.7333 81.8698 95.8933 82.2431 96C82.9365 96.2133 83.5765 96.32 84.1631 96.32C84.0031 96.2667 83.8831 96.2133 83.8031 96.16C83.1898 95.84 82.6698 95.4933 82.2431 95.12ZM84.2031 86.52C83.9365 86.3867 83.7231 86.2133 83.5631 86C83.4031 85.7867 83.2831 85.5467 83.2031 85.28C83.0698 84.9867 82.9765 84.6933 82.9231 84.4C82.8698 84.08 82.8298 83.76 82.8031 83.44C82.7765 83.5733 82.7498 83.6933 82.7231 83.8C82.6965 83.9067 82.6698 84.0133 82.6431 84.12C82.5098 84.6533 82.4165 85.2 82.3631 85.76C82.3365 86.2933 82.4565 86.8133 82.7231 87.32C82.8565 87.5867 83.0298 87.8133 83.2431 88C83.4831 88.16 83.7498 88.2533 84.0431 88.28C84.2831 88.3067 84.5098 88.2933 84.7231 88.24C84.9631 88.1867 85.1631 88.0667 85.3231 87.88C85.4298 87.72 85.4831 87.5733 85.4831 87.44C85.4831 87.2533 85.3898 87.04 85.2031 86.8C85.1765 86.8 85.1631 86.8 85.1631 86.8C85.1631 86.7733 85.1498 86.76 85.1231 86.76C84.7765 86.76 84.4698 86.68 84.2031 86.52ZM88.5231 81.32H88.5631V81.28L88.5231 81.32ZM122.968 68.12C123.501 68.6533 123.941 69.28 124.288 70C124.634 70.6933 124.741 71.44 124.608 72.24C124.554 72.56 124.461 72.8933 124.328 73.24C124.194 73.5867 124.008 73.8933 123.768 74.16C123.421 74.5333 122.941 74.7467 122.328 74.8C122.061 74.8 121.741 74.7333 121.368 74.6C121.021 74.44 120.648 74.2533 120.248 74.04C119.848 73.8 119.421 73.5733 118.968 73.36C118.541 73.12 118.101 72.9333 117.648 72.8C117.301 72.6933 116.928 72.6133 116.528 72.56C116.154 72.5067 115.794 72.5333 115.448 72.64C115.341 72.6933 115.208 72.7733 115.048 72.88C115.021 72.9333 114.994 72.9867 114.968 73.04C114.941 73.0667 114.914 73.1333 114.888 73.24C114.888 73.32 114.888 73.4133 114.888 73.52C114.888 73.6267 114.914 73.72 114.968 73.8C115.048 74.04 115.154 74.2933 115.288 74.56C115.474 74.8267 115.674 75.0533 115.888 75.24C116.128 75.4267 116.381 75.6133 116.648 75.8C117.234 76.1467 117.861 76.48 118.528 76.8C119.141 77.0933 119.754 77.4 120.368 77.72C120.981 78.0133 121.528 78.4267 122.008 78.96C122.488 79.4933 122.874 80.08 123.168 80.72C123.488 81.36 123.661 82.04 123.688 82.76C123.714 83.4533 123.634 84.12 123.448 84.76C123.288 85.4 123.021 86.0133 122.648 86.6C122.301 87.16 121.874 87.68 121.368 88.16C120.888 88.64 120.368 89.0533 119.808 89.4C119.594 89.5067 119.448 89.5867 119.368 89.64C119.421 89.7733 119.461 89.9333 119.488 90.12C119.514 90.28 119.568 90.52 119.648 90.84C119.701 91.1333 119.728 91.4267 119.728 91.72C119.754 92.0133 119.714 92.32 119.608 92.64C119.554 92.8533 119.354 93.0933 119.008 93.36C118.688 93.6267 118.461 93.8 118.328 93.88C117.874 94.1733 117.434 94.3067 117.008 94.28C116.608 94.28 116.234 94.1733 115.888 93.96C115.568 93.7467 115.288 93.44 115.048 93.04C114.834 92.6667 114.688 92.24 114.608 91.76C114.528 91.4933 114.461 91.12 114.408 90.64C113.421 90.64 112.514 90.44 111.688 90.04C111.021 89.6933 110.488 89.2133 110.088 88.6C109.714 87.9867 109.461 87.3333 109.328 86.64C109.194 86.0267 109.194 85.4267 109.328 84.84C109.461 84.2267 109.834 83.76 110.448 83.44C110.981 83.1467 111.541 83.04 112.128 83.12C112.714 83.2 113.288 83.32 113.848 83.48C114.354 83.6667 114.888 83.84 115.448 84C116.008 84.1333 116.568 84.1867 117.128 84.16C117.341 84.1333 117.554 84.0933 117.768 84.04C117.981 83.9867 118.154 83.8533 118.288 83.64C118.368 83.56 118.421 83.4667 118.448 83.36C118.501 83.2267 118.528 83.12 118.528 83.04C118.554 82.9067 118.528 82.7733 118.448 82.64C118.314 82.4267 118.154 82.2667 117.967 82.16C117.781 82.0533 117.594 81.9333 117.408 81.8C117.114 81.64 116.834 81.5067 116.568 81.4C116.301 81.2667 116.034 81.1467 115.768 81.04C115.474 80.9067 115.181 80.7867 114.888 80.68C114.621 80.5733 114.341 80.4533 114.048 80.32C113.834 80.2133 113.621 80.12 113.408 80.04C113.194 79.9333 112.994 79.8133 112.808 79.68C111.661 78.9333 110.848 77.9867 110.368 76.84C109.808 75.72 109.514 74.52 109.488 73.24C109.461 71.9333 109.754 70.72 110.368 69.6C111.008 68.4533 111.941 67.6 113.168 67.04L114.368 66.56C114.314 66.4 114.274 66.24 114.248 66.08C114.248 65.8933 114.248 65.7333 114.248 65.6C114.221 65.0133 114.221 64.44 114.248 63.88C114.301 63.2933 114.554 62.7733 115.008 62.32C115.274 62.0533 115.608 61.8533 116.008 61.72C116.434 61.5867 116.848 61.5467 117.248 61.6C117.674 61.6267 118.048 61.7733 118.368 62.04C118.688 62.28 118.888 62.64 118.968 63.12C119.021 63.4133 119.074 63.68 119.128 63.92C119.181 64.16 119.181 64.4267 119.128 64.72C119.074 64.9333 119.034 65.1067 119.008 65.24C119.008 65.3733 118.981 65.5067 118.928 65.64C118.901 65.6667 118.888 65.6933 118.888 65.72C118.888 65.7467 118.874 65.7867 118.848 65.84C119.248 65.9467 119.621 66.0667 119.968 66.2C120.314 66.3333 120.674 66.4933 121.048 66.68C121.394 66.8933 121.728 67.12 122.048 67.36C122.368 67.5733 122.674 67.8267 122.968 68.12ZM124.248 71.88C124.248 71.6133 124.234 71.36 124.208 71.12C124.181 70.8533 124.114 70.5867 124.008 70.32C123.714 69.5733 123.274 68.9333 122.688 68.4C122.101 67.84 121.474 67.3733 120.808 67C120.274 66.7067 119.754 66.48 119.248 66.32C119.248 66.3467 119.234 66.3733 119.208 66.4C119.101 66.4267 119.008 66.4533 118.928 66.48C118.848 66.5067 118.768 66.56 118.688 66.64C118.581 66.7467 118.528 66.8533 118.528 66.96C118.528 67.12 118.554 67.2933 118.608 67.48C118.688 67.64 118.781 67.7867 118.888 67.92C119.368 68.64 119.941 69.2133 120.608 69.64C120.768 69.7733 120.941 69.88 121.128 69.96C121.314 70.04 121.501 70.12 121.688 70.2C121.954 70.3067 122.208 70.4133 122.448 70.52C122.714 70.6267 122.968 70.7467 123.208 70.88C123.421 71.0133 123.621 71.16 123.808 71.32C123.994 71.48 124.141 71.6667 124.248 71.88ZM116.928 77.12C116.901 77.2 116.941 77.32 117.048 77.48C117.154 77.6667 117.288 77.8133 117.448 77.92C117.608 78.0267 117.768 78.1333 117.928 78.24C118.194 78.3733 118.448 78.5067 118.688 78.64C118.954 78.7733 119.208 78.9067 119.447 79.04C119.688 79.1467 119.914 79.2533 120.128 79.36C120.368 79.4667 120.594 79.5867 120.808 79.72C121.341 80.0667 121.834 80.4667 122.288 80.92C122.741 81.3467 123.061 81.8533 123.248 82.44C123.194 81.8533 123.034 81.3067 122.768 80.8C122.528 80.2933 122.208 79.8133 121.808 79.36C121.594 79.0933 121.354 78.8667 121.088 78.68C120.821 78.4667 120.541 78.2667 120.248 78.08C119.954 77.92 119.648 77.76 119.328 77.6C119.008 77.44 118.688 77.2933 118.368 77.16C118.181 77.0533 117.994 76.96 117.808 76.88C117.621 76.8 117.434 76.7067 117.248 76.6C117.248 76.6533 117.221 76.6933 117.168 76.72C117.034 76.8533 116.954 76.9867 116.928 77.12ZM118.088 62.44C117.874 62.1733 117.594 62.0133 117.248 61.96C116.928 61.88 116.608 61.8933 116.288 62C116.261 62 116.248 62.0133 116.248 62.04C116.168 62.0667 116.088 62.1333 116.008 62.24C115.954 62.3467 115.914 62.4667 115.888 62.6C115.861 62.7333 115.848 62.8667 115.848 63C115.874 63.1067 115.928 63.1867 116.008 63.24C116.168 63.32 116.368 63.4133 116.608 63.52C116.848 63.6267 117.088 63.7467 117.328 63.88C117.594 63.9867 117.848 64.1333 118.088 64.32C118.328 64.48 118.528 64.6533 118.688 64.84C118.768 64.4133 118.754 63.9867 118.648 63.56C118.568 63.1067 118.381 62.7333 118.088 62.44ZM111.848 83.52C111.848 83.6 111.834 83.6533 111.808 83.68C111.754 83.7333 111.714 83.7867 111.688 83.84C111.661 83.8933 111.634 83.96 111.608 84.04C111.608 84.04 111.594 84.0667 111.568 84.12V84.24H111.528V84.36V84.4C111.528 84.4267 111.541 84.44 111.568 84.44C111.594 84.44 111.608 84.4533 111.608 84.48V84.52C111.634 84.52 111.648 84.5333 111.648 84.56C111.808 84.6667 111.941 84.7467 112.048 84.8C112.181 84.8267 112.301 84.8533 112.408 84.88C112.514 84.88 112.621 84.88 112.728 84.88C113.234 84.9333 113.728 84.9467 114.208 84.92C114.688 84.8933 115.168 84.8533 115.648 84.8C115.888 84.7467 116.128 84.7067 116.368 84.68C116.608 84.6533 116.834 84.6133 117.048 84.56C116.754 84.5867 116.448 84.5733 116.128 84.52C115.808 84.44 115.514 84.3733 115.248 84.32C114.714 84.2133 114.181 84.0533 113.648 83.84C113.354 83.76 113.074 83.6933 112.808 83.64C112.568 83.5867 112.314 83.5467 112.048 83.52H111.848ZM155.555 83.04C155.635 83.6267 155.689 84.2133 155.715 84.8C155.742 85.36 155.729 85.92 155.675 86.48C155.542 87.52 155.249 88.4667 154.795 89.32C154.582 89.6933 154.355 90.0533 154.115 90.4C153.875 90.7467 153.609 91.0667 153.315 91.36C153.022 91.6267 152.689 91.8533 152.315 92.04C151.969 92.2533 151.595 92.3333 151.195 92.28C150.795 92.2267 150.449 92.08 150.155 91.84C149.889 91.5733 149.689 91.2533 149.555 90.88C149.395 90.5067 149.275 90.12 149.195 89.72C149.142 89.32 149.089 88.92 149.035 88.52C148.982 87.9867 148.929 87.4533 148.875 86.92C148.822 86.3867 148.742 85.8533 148.635 85.32C148.502 84.7067 148.369 84.12 148.235 83.56C148.102 82.9733 147.942 82.4 147.755 81.84C147.675 81.6267 147.609 81.4133 147.555 81.2C147.529 80.96 147.489 80.7333 147.435 80.52C147.382 80.3067 147.315 80.1067 147.235 79.92C147.182 79.7067 147.075 79.5333 146.915 79.4C146.782 79.2667 146.609 79.16 146.395 79.08C146.209 78.9733 146.022 78.92 145.835 78.92C145.649 78.92 145.449 79 145.235 79.16C145.342 79.6133 145.422 80.08 145.475 80.56C145.555 81.04 145.622 81.5067 145.675 81.96C145.755 82.5467 145.822 83.1333 145.875 83.72C145.929 84.3067 145.942 84.9067 145.915 85.52C145.889 85.8133 145.862 86.12 145.835 86.44C145.835 86.7333 145.809 87.0267 145.755 87.32C145.702 87.6133 145.649 87.9067 145.595 88.2C145.542 88.4667 145.489 88.7467 145.435 89.04C145.382 89.44 145.302 89.8533 145.195 90.28C145.089 90.68 144.902 91.04 144.635 91.36C144.369 91.7067 144.009 91.9733 143.555 92.16C143.129 92.3733 142.689 92.4667 142.235 92.44C141.755 92.4133 141.355 92.2667 141.035 92C140.715 91.76 140.435 91.4667 140.195 91.12C139.982 90.7467 139.809 90.3467 139.675 89.92C139.542 89.4667 139.435 89.0533 139.355 88.68C139.195 88.0667 139.075 87.4667 138.995 86.88C138.915 86.2933 138.849 85.6933 138.795 85.08C138.769 84.7867 138.742 84.4933 138.715 84.2C138.689 83.88 138.649 83.5733 138.595 83.28C138.542 83.0667 138.502 82.8533 138.475 82.64C138.449 82.4267 138.409 82.2133 138.355 82C138.302 81.6267 138.235 81.2533 138.155 80.88C138.102 80.5067 137.982 80.1733 137.795 79.88C137.715 79.7467 137.622 79.6267 137.515 79.52C137.409 79.4133 137.275 79.3467 137.115 79.32C136.822 79.24 136.555 79.28 136.315 79.44C136.182 79.52 136.075 79.6133 135.995 79.72C135.915 79.8267 135.835 79.9467 135.755 80.08C135.755 80.1333 135.755 80.2667 135.755 80.48C135.782 80.6933 135.795 80.9333 135.795 81.2C135.822 81.4667 135.835 81.72 135.835 81.96C135.835 82.2 135.835 82.3733 135.835 82.48C135.809 83.92 135.622 85.3867 135.275 86.88C135.195 87.3067 135.102 87.72 134.995 88.12C134.889 88.52 134.755 88.9067 134.595 89.28C134.302 89.9733 133.915 90.6267 133.435 91.24C133.222 91.48 132.982 91.7067 132.715 91.92C132.449 92.1067 132.169 92.2533 131.875 92.36C131.289 92.5467 130.729 92.44 130.195 92.04C129.822 91.7467 129.529 91.4 129.315 91C129.129 90.5733 128.969 90.1467 128.835 89.72C128.702 89.1867 128.595 88.6533 128.515 88.12C128.462 87.5867 128.422 87.0533 128.395 86.52C128.369 85.9333 128.355 85.36 128.355 84.8C128.382 84.24 128.395 83.6667 128.395 83.08C128.395 82.3333 128.355 81.6 128.275 80.88C128.222 80.2133 128.195 79.56 128.195 78.92C128.195 78.2533 128.222 77.5867 128.275 76.92C128.329 76.2533 128.422 75.5867 128.555 74.92C128.715 74.2533 128.982 73.64 129.355 73.08C129.702 72.4933 130.115 72.0933 130.595 71.88C131.129 71.5867 131.742 71.48 132.435 71.56C133.075 71.64 133.609 71.88 134.035 72.28C134.249 72.4933 134.422 72.72 134.555 72.96C134.689 73.2 134.809 73.4533 134.915 73.72C135.155 74.4133 135.315 75.1333 135.395 75.88C135.475 75.72 135.555 75.56 135.635 75.4C135.742 75.24 135.849 75.08 135.955 74.92C136.409 74.2533 136.929 73.64 137.515 73.08C138.129 72.4933 138.835 72.0933 139.635 71.88C140.302 71.6933 140.915 71.72 141.475 71.96C142.035 72.2 142.502 72.5733 142.875 73.08C143.222 73.48 143.502 73.92 143.715 74.4C143.955 74.8533 144.169 75.3333 144.355 75.84C144.675 74.9867 145.195 74.2133 145.915 73.52C146.475 72.9867 147.129 72.56 147.875 72.24C148.622 71.92 149.382 71.84 150.155 72C151.009 72.16 151.729 72.5333 152.315 73.12C152.902 73.7067 153.369 74.3733 153.715 75.12C154.089 75.8933 154.382 76.6933 154.595 77.52C154.809 78.3467 154.982 79.1867 155.115 80.04C155.195 80.5467 155.275 81.0533 155.355 81.56C155.435 82.04 155.502 82.5333 155.555 83.04ZM148.715 73.24C148.662 73.5333 148.729 73.8133 148.915 74.08C149.129 74.3467 149.342 74.5733 149.555 74.76C150.009 75.16 150.529 75.5333 151.115 75.88C151.729 76.2 152.329 76.5733 152.915 77C153.502 77.4 153.969 77.9067 154.315 78.52C154.262 78.3067 154.209 78.0933 154.155 77.88C154.102 77.6667 154.049 77.4533 153.995 77.24C153.782 76.4667 153.489 75.7067 153.115 74.96C152.742 74.1867 152.209 73.56 151.515 73.08C150.902 72.6533 150.249 72.4267 149.555 72.4C149.555 72.48 149.515 72.52 149.435 72.52C149.302 72.6 149.155 72.6933 148.995 72.8C148.862 72.9067 148.769 73.0533 148.715 73.24ZM139.715 72.48C139.582 72.6133 139.435 72.76 139.275 72.92C139.142 73.08 139.075 73.2667 139.075 73.48C139.129 73.7733 139.275 74 139.515 74.16C139.782 74.3733 140.075 74.5333 140.395 74.64C140.742 74.7467 141.089 74.8533 141.435 74.96C141.889 75.0933 142.329 75.2533 142.755 75.44C143.182 75.6267 143.582 75.8667 143.955 76.16C143.742 75.6 143.502 75.0533 143.235 74.52C142.969 73.96 142.622 73.4667 142.195 73.04C141.769 72.6133 141.289 72.36 140.755 72.28C140.462 72.2533 140.142 72.28 139.795 72.36C139.795 72.4133 139.769 72.4533 139.715 72.48ZM133.675 72.6C133.275 72.2533 132.782 72.0533 132.195 72H132.115C131.982 72.1333 131.862 72.28 131.755 72.44C131.649 72.5733 131.582 72.72 131.555 72.88C131.502 73.0133 131.502 73.1467 131.555 73.28C131.609 73.44 131.662 73.56 131.715 73.64C131.849 73.8533 131.995 74.0533 132.155 74.24C132.342 74.4 132.529 74.56 132.715 74.72C132.929 74.9067 133.129 75.0933 133.315 75.28C133.529 75.44 133.742 75.6267 133.955 75.84C134.142 76.0267 134.302 76.2133 134.435 76.4C134.595 76.5867 134.729 76.7867 134.835 77C134.889 76.84 134.942 76.7333 134.995 76.68C134.942 76.2267 134.875 75.7733 134.795 75.32C134.742 74.8667 134.649 74.4267 134.515 74C134.409 73.7333 134.289 73.4933 134.155 73.28C134.049 73.04 133.889 72.8133 133.675 72.6ZM172.326 84.04C172.726 84.1733 173.032 84.3733 173.246 84.64C173.459 84.9067 173.606 85.2133 173.686 85.56C173.766 85.9067 173.792 86.28 173.766 86.68C173.766 87.0533 173.739 87.4 173.686 87.72C173.526 88.4933 173.219 89.24 172.766 89.96C172.312 90.6533 171.739 91.1867 171.046 91.56C170.352 91.9333 169.566 92.1867 168.686 92.32C168.232 92.3733 167.766 92.4 167.286 92.4C166.832 92.4267 166.366 92.3867 165.886 92.28C163.859 91.8533 162.232 91.1333 161.006 90.12C159.779 89.08 158.886 87.8933 158.326 86.56C157.792 85.2267 157.566 83.8267 157.646 82.36C157.726 80.8667 158.046 79.4667 158.606 78.16C159.192 76.8267 159.992 75.6533 161.006 74.64C162.019 73.6267 163.179 72.9067 164.486 72.48C165.259 72.24 166.046 72.0933 166.846 72.04C167.646 71.9867 168.432 72.0667 169.206 72.28C169.979 72.4667 170.712 72.76 171.406 73.16C172.099 73.5333 172.686 74.0267 173.166 74.64C173.699 75.3067 173.992 76.0533 174.046 76.88C174.126 77.68 174.019 78.4667 173.726 79.24C173.539 79.6667 173.312 80.0667 173.046 80.44C172.806 80.7867 172.499 81.1067 172.126 81.4C171.939 81.64 171.579 81.8667 171.046 82.08C170.539 82.2933 169.952 82.4533 169.286 82.56C168.619 82.6667 167.939 82.72 167.246 82.72C166.552 82.72 165.926 82.6267 165.366 82.44C165.232 83.08 165.152 83.68 165.126 84.24C165.099 84.8 165.326 85.32 165.806 85.8C166.046 86.04 166.339 86.24 166.686 86.4C167.032 86.5333 167.379 86.5733 167.726 86.52C168.019 86.4667 168.286 86.36 168.526 86.2C168.792 86.04 169.032 85.8533 169.246 85.64C169.459 85.4267 169.672 85.2133 169.886 85C170.126 84.76 170.366 84.56 170.606 84.4C170.846 84.2133 171.112 84.08 171.406 84C171.699 83.92 172.006 83.9333 172.326 84.04ZM167.606 73.28C167.526 73.6 167.566 73.9067 167.726 74.2C167.832 74.36 167.979 74.4933 168.166 74.6C168.352 74.68 168.539 74.7467 168.726 74.8C168.939 74.8533 169.139 74.8933 169.326 74.92C169.539 74.9467 169.752 74.9867 169.966 75.04C170.152 75.0933 170.326 75.16 170.486 75.24C170.672 75.2933 170.846 75.36 171.006 75.44C171.566 75.7333 172.112 76.1333 172.646 76.64C173.179 77.1467 173.459 77.72 173.486 78.36C173.619 77.8267 173.646 77.2933 173.566 76.76C173.512 76.2267 173.339 75.7333 173.046 75.28C172.619 74.64 172.072 74.12 171.406 73.72C170.739 73.32 170.046 73.0133 169.326 72.8C169.192 72.7733 169.072 72.7467 168.966 72.72C168.859 72.6933 168.739 72.6667 168.606 72.64C168.552 72.6933 168.486 72.72 168.406 72.72C167.952 72.6667 167.686 72.8533 167.606 73.28ZM165.846 86.44C165.232 85.9867 164.819 85.3867 164.606 84.64C164.446 84.2133 164.366 83.7467 164.366 83.24C164.206 83.8533 164.099 84.48 164.046 85.12C164.019 85.76 164.179 86.36 164.526 86.92C164.712 87.2133 164.939 87.4533 165.206 87.64C165.472 87.8267 165.792 87.92 166.166 87.92C166.512 87.92 166.792 87.8 167.006 87.56C167.112 87.4267 167.139 87.3067 167.086 87.2C167.032 87.0933 166.952 87 166.846 86.92C166.819 86.92 166.792 86.9067 166.766 86.88C166.446 86.8 166.139 86.6533 165.846 86.44ZM165.966 79.36C166.366 79.44 166.739 79.4667 167.086 79.44C167.379 79.4133 167.686 79.3467 168.006 79.24C168.326 79.1333 168.526 78.92 168.606 78.6C168.712 78.2 168.539 77.9333 168.086 77.8C167.552 77.6667 167.006 77.72 166.446 77.96C165.886 78.1733 165.486 78.52 165.246 79C165.272 79.0267 165.286 79.08 165.286 79.16C165.499 79.24 165.726 79.3067 165.966 79.36ZM173.246 87.4C173.299 87.2133 173.326 87.0267 173.326 86.84C173.326 86.6533 173.326 86.4667 173.326 86.28C173.299 85.96 173.219 85.64 173.086 85.32C172.979 85 172.779 84.76 172.486 84.6C172.352 84.5467 172.232 84.5067 172.126 84.48C172.046 84.4533 171.939 84.44 171.806 84.44C171.806 84.4933 171.779 84.5467 171.726 84.6C171.672 84.6533 171.619 84.6933 171.566 84.72C171.539 84.72 171.499 84.7467 171.446 84.8C171.446 84.8 171.432 84.8133 171.406 84.84C171.406 84.8667 171.392 84.8933 171.366 84.92C171.366 85.0267 171.379 85.12 171.406 85.2C171.512 85.3867 171.632 85.5467 171.766 85.68C171.926 85.8133 172.072 85.9467 172.206 86.08C172.419 86.2667 172.619 86.4667 172.806 86.68C173.019 86.8933 173.166 87.1333 173.246 87.4ZM166.166 80.16C166.166 80.1333 166.152 80.12 166.126 80.12C166.126 80.0933 166.126 80.0667 166.126 80.04C166.126 80.0133 166.112 79.9867 166.086 79.96V79.88C165.952 79.8533 165.779 79.8133 165.566 79.76C165.432 79.7067 165.246 79.64 165.006 79.56C164.792 79.48 164.699 79.36 164.726 79.2C164.672 79.1733 164.672 79.1333 164.726 79.08C164.779 78.84 164.912 78.6 165.126 78.36C165.019 78.4133 164.912 78.4667 164.806 78.52C164.726 78.5467 164.632 78.5867 164.526 78.64C164.472 78.6933 164.419 78.7333 164.366 78.76C164.339 78.7867 164.299 78.8267 164.246 78.88C164.219 78.9067 164.206 78.9333 164.206 78.96C164.152 79.0133 164.126 79.04 164.126 79.04C164.099 79.12 164.086 79.1867 164.086 79.24C164.112 79.2667 164.112 79.28 164.086 79.28C164.086 79.28 164.099 79.2933 164.126 79.32V79.4C164.259 79.6667 164.539 79.8933 164.966 80.08C165.099 80.1333 165.259 80.1867 165.446 80.24C165.632 80.2933 165.806 80.3067 165.966 80.28H166.086L166.126 80.24C166.126 80.24 166.139 80.2267 166.166 80.2V80.16ZM203.485 83.04C203.565 83.6267 203.618 84.2133 203.645 84.8C203.672 85.36 203.658 85.92 203.605 86.48C203.472 87.52 203.178 88.4667 202.725 89.32C202.512 89.6933 202.285 90.0533 202.045 90.4C201.805 90.7467 201.538 91.0667 201.245 91.36C200.952 91.6267 200.618 91.8533 200.245 92.04C199.898 92.2533 199.525 92.3333 199.125 92.28C198.725 92.2267 198.378 92.08 198.085 91.84C197.818 91.5733 197.618 91.2533 197.485 90.88C197.325 90.5067 197.205 90.12 197.125 89.72C197.072 89.32 197.018 88.92 196.965 88.52C196.912 87.9867 196.858 87.4533 196.805 86.92C196.752 86.3867 196.672 85.8533 196.565 85.32C196.432 84.7067 196.298 84.12 196.165 83.56C196.032 82.9733 195.872 82.4 195.685 81.84C195.605 81.6267 195.538 81.4133 195.485 81.2C195.458 80.96 195.418 80.7333 195.365 80.52C195.312 80.3067 195.245 80.1067 195.165 79.92C195.112 79.7067 195.005 79.5333 194.845 79.4C194.712 79.2667 194.538 79.16 194.325 79.08C194.138 78.9733 193.952 78.92 193.765 78.92C193.578 78.92 193.378 79 193.165 79.16C193.272 79.6133 193.352 80.08 193.405 80.56C193.485 81.04 193.552 81.5067 193.605 81.96C193.685 82.5467 193.752 83.1333 193.805 83.72C193.858 84.3067 193.872 84.9067 193.845 85.52C193.818 85.8133 193.792 86.12 193.765 86.44C193.765 86.7333 193.738 87.0267 193.685 87.32C193.632 87.6133 193.578 87.9067 193.525 88.2C193.472 88.4667 193.418 88.7467 193.365 89.04C193.312 89.44 193.232 89.8533 193.125 90.28C193.018 90.68 192.832 91.04 192.565 91.36C192.298 91.7067 191.938 91.9733 191.485 92.16C191.058 92.3733 190.618 92.4667 190.165 92.44C189.685 92.4133 189.285 92.2667 188.965 92C188.645 91.76 188.365 91.4667 188.125 91.12C187.912 90.7467 187.738 90.3467 187.605 89.92C187.472 89.4667 187.365 89.0533 187.285 88.68C187.125 88.0667 187.005 87.4667 186.925 86.88C186.845 86.2933 186.778 85.6933 186.725 85.08C186.698 84.7867 186.672 84.4933 186.645 84.2C186.618 83.88 186.578 83.5733 186.525 83.28C186.472 83.0667 186.432 82.8533 186.405 82.64C186.378 82.4267 186.338 82.2133 186.285 82C186.232 81.6267 186.165 81.2533 186.085 80.88C186.032 80.5067 185.912 80.1733 185.725 79.88C185.645 79.7467 185.552 79.6267 185.445 79.52C185.338 79.4133 185.205 79.3467 185.045 79.32C184.752 79.24 184.485 79.28 184.245 79.44C184.112 79.52 184.005 79.6133 183.925 79.72C183.845 79.8267 183.765 79.9467 183.685 80.08C183.685 80.1333 183.685 80.2667 183.685 80.48C183.712 80.6933 183.725 80.9333 183.725 81.2C183.752 81.4667 183.765 81.72 183.765 81.96C183.765 82.2 183.765 82.3733 183.765 82.48C183.738 83.92 183.552 85.3867 183.205 86.88C183.125 87.3067 183.032 87.72 182.925 88.12C182.818 88.52 182.685 88.9067 182.525 89.28C182.232 89.9733 181.845 90.6267 181.365 91.24C181.152 91.48 180.912 91.7067 180.645 91.92C180.378 92.1067 180.098 92.2533 179.805 92.36C179.218 92.5467 178.658 92.44 178.125 92.04C177.752 91.7467 177.458 91.4 177.245 91C177.058 90.5733 176.898 90.1467 176.765 89.72C176.632 89.1867 176.525 88.6533 176.445 88.12C176.392 87.5867 176.352 87.0533 176.325 86.52C176.298 85.9333 176.285 85.36 176.285 84.8C176.312 84.24 176.325 83.6667 176.325 83.08C176.325 82.3333 176.285 81.6 176.205 80.88C176.152 80.2133 176.125 79.56 176.125 78.92C176.125 78.2533 176.152 77.5867 176.205 76.92C176.258 76.2533 176.352 75.5867 176.485 74.92C176.645 74.2533 176.912 73.64 177.285 73.08C177.632 72.4933 178.045 72.0933 178.525 71.88C179.058 71.5867 179.672 71.48 180.365 71.56C181.005 71.64 181.538 71.88 181.965 72.28C182.178 72.4933 182.352 72.72 182.485 72.96C182.618 73.2 182.738 73.4533 182.845 73.72C183.085 74.4133 183.245 75.1333 183.325 75.88C183.405 75.72 183.485 75.56 183.565 75.4C183.672 75.24 183.778 75.08 183.885 74.92C184.338 74.2533 184.858 73.64 185.445 73.08C186.058 72.4933 186.765 72.0933 187.565 71.88C188.232 71.6933 188.845 71.72 189.405 71.96C189.965 72.2 190.432 72.5733 190.805 73.08C191.152 73.48 191.432 73.92 191.645 74.4C191.885 74.8533 192.098 75.3333 192.285 75.84C192.605 74.9867 193.125 74.2133 193.845 73.52C194.405 72.9867 195.058 72.56 195.805 72.24C196.552 71.92 197.312 71.84 198.085 72C198.938 72.16 199.658 72.5333 200.245 73.12C200.832 73.7067 201.298 74.3733 201.645 75.12C202.018 75.8933 202.312 76.6933 202.525 77.52C202.738 78.3467 202.912 79.1867 203.045 80.04C203.125 80.5467 203.205 81.0533 203.285 81.56C203.365 82.04 203.432 82.5333 203.485 83.04ZM196.645 73.24C196.592 73.5333 196.658 73.8133 196.845 74.08C197.058 74.3467 197.272 74.5733 197.485 74.76C197.938 75.16 198.458 75.5333 199.045 75.88C199.658 76.2 200.258 76.5733 200.845 77C201.432 77.4 201.898 77.9067 202.245 78.52C202.192 78.3067 202.138 78.0933 202.085 77.88C202.032 77.6667 201.978 77.4533 201.925 77.24C201.712 76.4667 201.418 75.7067 201.045 74.96C200.672 74.1867 200.138 73.56 199.445 73.08C198.832 72.6533 198.178 72.4267 197.485 72.4C197.485 72.48 197.445 72.52 197.365 72.52C197.232 72.6 197.085 72.6933 196.925 72.8C196.792 72.9067 196.698 73.0533 196.645 73.24ZM187.645 72.48C187.512 72.6133 187.365 72.76 187.205 72.92C187.072 73.08 187.005 73.2667 187.005 73.48C187.058 73.7733 187.205 74 187.445 74.16C187.712 74.3733 188.005 74.5333 188.325 74.64C188.672 74.7467 189.018 74.8533 189.365 74.96C189.818 75.0933 190.258 75.2533 190.685 75.44C191.112 75.6267 191.512 75.8667 191.885 76.16C191.672 75.6 191.432 75.0533 191.165 74.52C190.898 73.96 190.552 73.4667 190.125 73.04C189.698 72.6133 189.218 72.36 188.685 72.28C188.392 72.2533 188.072 72.28 187.725 72.36C187.725 72.4133 187.698 72.4533 187.645 72.48ZM181.605 72.6C181.205 72.2533 180.712 72.0533 180.125 72H180.045C179.912 72.1333 179.792 72.28 179.685 72.44C179.578 72.5733 179.512 72.72 179.485 72.88C179.432 73.0133 179.432 73.1467 179.485 73.28C179.538 73.44 179.592 73.56 179.645 73.64C179.778 73.8533 179.925 74.0533 180.085 74.24C180.272 74.4 180.458 74.56 180.645 74.72C180.858 74.9067 181.058 75.0933 181.245 75.28C181.458 75.44 181.672 75.6267 181.885 75.84C182.072 76.0267 182.232 76.2133 182.365 76.4C182.525 76.5867 182.658 76.7867 182.765 77C182.818 76.84 182.872 76.7333 182.925 76.68C182.872 76.2267 182.805 75.7733 182.725 75.32C182.672 74.8667 182.578 74.4267 182.445 74C182.338 73.7333 182.218 73.4933 182.085 73.28C181.978 73.04 181.818 72.8133 181.605 72.6ZM221.615 81.52C221.749 83.2 221.629 84.8533 221.255 86.48C221.175 86.9067 221.082 87.32 220.975 87.72C220.869 88.12 220.749 88.5067 220.615 88.88C220.482 89.28 220.322 89.68 220.135 90.08C219.949 90.4533 219.709 90.8 219.415 91.12C219.149 91.44 218.842 91.68 218.495 91.84C218.175 92 217.815 92.1333 217.415 92.24C216.962 92.3733 216.495 92.4533 216.015 92.48C215.535 92.5067 215.069 92.52 214.615 92.52C214.162 92.52 213.709 92.5067 213.255 92.48C212.802 92.4533 212.349 92.4 211.895 92.32C210.989 92.16 210.162 91.7867 209.415 91.2C208.642 90.6133 208.015 89.92 207.535 89.12C207.055 88.2933 206.669 87.44 206.375 86.56C206.189 85.9733 206.042 85.4 205.935 84.84C205.829 84.2533 205.762 83.6533 205.735 83.04C205.682 82.4267 205.682 81.8267 205.735 81.24C205.789 80.6533 205.882 80.0667 206.015 79.48C206.122 78.92 206.255 78.3733 206.415 77.84C206.575 77.28 206.789 76.7467 207.055 76.24C207.269 75.7867 207.509 75.3867 207.775 75.04C208.069 74.6667 208.389 74.32 208.735 74C209.349 73.4133 210.055 72.9067 210.855 72.48C211.655 72.0533 212.482 71.84 213.335 71.84C213.762 71.68 214.242 71.6667 214.775 71.8C215.149 71.88 215.509 72.0133 215.855 72.2C216.202 72.3867 216.522 72.6 216.815 72.84C217.135 73.08 217.442 73.3333 217.735 73.6C218.029 73.8667 218.309 74.1467 218.575 74.44C218.869 74.7333 219.122 75.04 219.335 75.36C219.549 75.6533 219.762 75.9867 219.975 76.36C220.242 76.8667 220.482 77.3867 220.695 77.92C220.935 78.4267 221.122 78.96 221.255 79.52C221.335 79.8133 221.389 80.1067 221.415 80.4C221.469 80.6933 221.522 80.9867 221.575 81.28C221.575 81.3333 221.589 81.3733 221.615 81.4V81.52ZM214.695 86.12C214.989 86.0933 215.242 86.0133 215.455 85.88C215.695 85.72 215.909 85.5333 216.095 85.32C216.415 84.9467 216.642 84.52 216.775 84.04C216.909 83.56 216.975 83.08 216.975 82.6C216.975 82.2 216.935 81.7733 216.855 81.32C216.775 80.8667 216.629 80.4533 216.415 80.08C216.229 79.68 215.975 79.3333 215.655 79.04C215.362 78.7467 215.002 78.5467 214.575 78.44C214.202 78.3067 213.815 78.28 213.415 78.36C213.042 78.4133 212.695 78.5333 212.375 78.72C212.109 79.0133 211.935 79.4133 211.855 79.92C211.722 80.4533 211.655 81 211.655 81.56C211.682 82.0933 211.762 82.6267 211.895 83.16C211.975 83.7467 212.149 84.28 212.415 84.76C212.575 85.0533 212.802 85.3333 213.095 85.6C213.389 85.84 213.722 86 214.095 86.08C214.122 86.1067 214.175 86.12 214.255 86.12C214.282 86.0933 214.335 86.08 214.415 86.08C214.469 86.08 214.509 86.0933 214.535 86.12C214.589 86.12 214.642 86.12 214.695 86.12ZM214.295 72.2C214.082 72.36 213.869 72.56 213.655 72.8C213.469 73.0133 213.402 73.2667 213.455 73.56C213.509 73.8533 213.629 74.1067 213.815 74.32C214.002 74.5067 214.202 74.6933 214.415 74.88C214.949 75.3333 215.522 75.72 216.135 76.04C216.749 76.3333 217.362 76.6667 217.975 77.04C218.375 77.3067 218.762 77.5867 219.135 77.88C219.535 78.1467 219.895 78.4667 220.215 78.84C220.429 79.0533 220.615 79.28 220.775 79.52C220.669 79.1467 220.535 78.7867 220.375 78.44C220.242 78.0667 220.095 77.6933 219.935 77.32C219.722 76.92 219.509 76.5333 219.295 76.16C219.082 75.76 218.829 75.4 218.535 75.08C218.002 74.4667 217.455 73.9333 216.895 73.48C216.602 73.24 216.282 73.0267 215.935 72.84C215.615 72.6267 215.269 72.4533 214.895 72.32C214.682 72.24 214.495 72.2 214.335 72.2H214.295ZM211.575 83.96C211.389 83.3467 211.269 82.7067 211.215 82.04C211.162 81.3467 211.202 80.6667 211.335 80C211.335 79.9467 211.335 79.9067 211.335 79.88C211.362 79.8533 211.375 79.8133 211.375 79.76C211.029 80.3733 210.789 81.0533 210.655 81.8C210.522 82.52 210.482 83.2267 210.535 83.92C210.562 84.3733 210.615 84.8267 210.695 85.28C210.802 85.7333 210.962 86.16 211.175 86.56C211.389 86.9333 211.655 87.2933 211.975 87.64C212.322 87.9867 212.722 88.2 213.175 88.28C213.495 88.3333 213.802 88.2933 214.095 88.16C214.415 88.0267 214.669 87.8267 214.855 87.56C214.909 87.4533 214.962 87.3467 215.015 87.24C215.069 87.1333 215.069 87.0267 215.015 86.92C214.989 86.7867 214.882 86.6933 214.695 86.64H214.495C214.042 86.6133 213.615 86.4933 213.215 86.28C212.842 86.04 212.522 85.7333 212.255 85.36C211.989 85.0133 211.762 84.5467 211.575 83.96ZM238.343 82.2C238.903 82.8667 239.33 83.6267 239.623 84.48C239.943 85.3333 240.063 86.1867 239.983 87.04C239.85 88.3733 239.25 89.4533 238.183 90.28C237.65 90.7333 237.05 91.0933 236.383 91.36C235.743 91.6267 235.09 91.8533 234.423 92.04C233.703 92.2 232.97 92.32 232.223 92.4C231.503 92.48 230.783 92.5333 230.063 92.56C229.663 92.56 229.263 92.5467 228.863 92.52C228.49 92.4933 228.116 92.44 227.743 92.36C226.836 92.1467 226.076 91.7867 225.463 91.28C224.77 90.72 224.276 90.0533 223.983 89.28C223.716 88.48 223.663 87.6667 223.823 86.84C223.956 86.2267 224.21 85.6533 224.583 85.12C224.956 84.56 225.49 84.2133 226.183 84.08C226.77 83.9733 227.356 84 227.943 84.16C228.53 84.2933 229.09 84.4533 229.623 84.64C229.89 84.72 230.156 84.8133 230.423 84.92C230.69 85 230.97 85.08 231.263 85.16C231.476 85.2133 231.69 85.2667 231.903 85.32C232.143 85.3733 232.383 85.3867 232.623 85.36C232.97 85.3067 233.236 85.1333 233.423 84.84L233.543 84.48C233.596 84.4267 233.596 84.36 233.543 84.28C233.543 84.2267 233.516 84.1733 233.463 84.12C233.41 84.0933 233.37 84.08 233.343 84.08C233.343 84.0533 233.316 84.0267 233.263 84C233.05 83.8933 232.796 83.84 232.503 83.84C232.236 83.8133 231.983 83.8 231.743 83.8C231.45 83.8 231.156 83.8133 230.863 83.84C230.57 83.84 230.276 83.8533 229.983 83.88C229.21 83.9067 228.463 83.8 227.743 83.56C227.023 83.2933 226.396 82.88 225.863 82.32C225.516 81.9733 225.236 81.6 225.023 81.2C224.81 80.8 224.61 80.3733 224.423 79.92C224.263 79.52 224.13 79.12 224.023 78.72C223.916 78.32 223.836 77.8933 223.783 77.44C223.73 76.6667 223.836 75.9333 224.103 75.24C224.37 74.5467 224.81 73.9467 225.423 73.44C226.036 72.9333 226.716 72.5467 227.463 72.28C228.21 71.9867 228.97 71.7867 229.743 71.68C230.463 71.5733 231.196 71.5333 231.943 71.56C232.716 71.5867 233.463 71.7067 234.183 71.92C234.903 72.1067 235.57 72.4 236.183 72.8C236.823 73.1733 237.37 73.6667 237.823 74.28C238.276 74.9467 238.583 75.64 238.743 76.36C238.796 76.68 238.823 77.0133 238.823 77.36C238.823 77.7067 238.73 78.0267 238.543 78.32C238.223 78.8267 237.756 79.1333 237.143 79.24C236.53 79.32 235.956 79.32 235.423 79.24C235.103 79.1867 234.783 79.12 234.463 79.04C234.143 78.96 233.836 78.8533 233.543 78.72C233.383 78.64 233.223 78.5733 233.063 78.52C232.93 78.44 232.783 78.3467 232.623 78.24C232.41 78.1067 232.196 77.9867 231.983 77.88C231.77 77.7467 231.556 77.64 231.343 77.56C230.996 77.48 230.663 77.48 230.343 77.56C229.89 77.8267 229.623 78.16 229.543 78.56C229.49 78.72 229.49 78.9067 229.543 79.12C229.623 79.28 229.756 79.4533 229.943 79.64C230.263 79.9067 230.636 80.0933 231.063 80.2C231.516 80.3067 231.943 80.3733 232.343 80.4C232.93 80.4267 233.503 80.4267 234.063 80.4C234.65 80.3467 235.223 80.4 235.783 80.56C236.29 80.6933 236.756 80.9067 237.183 81.2C237.61 81.4933 237.996 81.8267 238.343 82.2ZM230.743 72.56C230.716 72.8 230.796 73.04 230.983 73.28C231.063 73.4133 231.17 73.5333 231.303 73.64C231.463 73.72 231.61 73.8 231.743 73.88C232.116 74.04 232.53 74.16 232.983 74.24C233.196 74.2933 233.41 74.3333 233.623 74.36C233.836 74.3867 234.05 74.44 234.263 74.52L234.863 74.76C235.53 75 236.143 75.2933 236.703 75.64C236.97 75.7733 237.236 75.9467 237.503 76.16C237.77 76.3467 237.983 76.5867 238.143 76.88C238.25 77.0933 238.303 77.3067 238.303 77.52C238.356 77.1467 238.343 76.7867 238.263 76.44C238.183 76.0667 238.063 75.72 237.903 75.4C237.636 74.7867 237.223 74.2133 236.663 73.68C236.103 73.2267 235.476 72.8667 234.783 72.6C234.09 72.3333 233.396 72.16 232.703 72.08C232.49 72.0533 232.29 72.04 232.103 72.04C231.916 72.04 231.73 72.04 231.543 72.04C231.516 72.04 231.49 72.0533 231.463 72.08C231.463 72.08 231.45 72.08 231.423 72.08C231.29 72.1067 231.156 72.16 231.023 72.24C230.89 72.2933 230.796 72.4 230.743 72.56ZM233.983 80.96C233.903 81.04 233.823 81.1333 233.743 81.24C233.69 81.32 233.663 81.4133 233.663 81.52C233.663 81.5467 233.69 81.6133 233.743 81.72C233.77 81.7467 233.796 81.7867 233.823 81.84C233.85 81.8667 233.89 81.8933 233.943 81.92C234.05 82 234.156 82.0667 234.263 82.12C234.396 82.1733 234.53 82.2267 234.663 82.28C234.93 82.4133 235.196 82.52 235.463 82.6C235.73 82.6533 236.01 82.72 236.303 82.8C236.836 82.9333 237.343 83.1467 237.823 83.44C238.33 83.7067 238.756 84.04 239.103 84.44C239.05 84.2267 238.93 83.96 238.743 83.64C238.53 83.2133 238.263 82.8133 237.943 82.44C237.623 82.0667 237.236 81.76 236.783 81.52C236.57 81.3867 236.33 81.2667 236.063 81.16C235.823 81.0533 235.556 80.9733 235.263 80.92C235.05 80.8667 234.85 80.84 234.663 80.84C234.476 80.84 234.276 80.84 234.063 80.84C234.063 80.8667 234.036 80.9067 233.983 80.96ZM231.663 85.72C231.076 85.6133 230.516 85.4533 229.983 85.24C229.45 85.0267 228.903 84.8533 228.343 84.72C228.103 84.6667 227.85 84.6133 227.583 84.56C227.343 84.5067 227.103 84.48 226.863 84.48C226.863 84.5333 226.836 84.56 226.783 84.56C226.756 84.6133 226.703 84.68 226.623 84.76C226.516 84.92 226.463 85.04 226.463 85.12C226.41 85.1733 226.41 85.24 226.463 85.32C226.463 85.2933 226.476 85.3067 226.503 85.36C226.53 85.3867 226.53 85.3867 226.503 85.36L226.623 85.48C226.676 85.5333 226.756 85.5867 226.863 85.64C227.13 85.7733 227.396 85.8667 227.663 85.92C227.956 85.9467 228.25 85.9867 228.543 86.04C228.863 86.0667 229.183 86.08 229.503 86.08C229.823 86.08 230.143 86.0933 230.463 86.12C230.703 86.12 230.93 86.12 231.143 86.12C231.383 86.12 231.61 86.0933 231.823 86.04C232.09 86.0133 232.343 85.9333 232.583 85.8C232.29 85.8533 231.983 85.8267 231.663 85.72ZM232.743 77.8C232.69 77.7733 232.623 77.72 232.543 77.64C232.623 77.72 232.69 77.7733 232.743 77.8Z" fill="#0080BF"/>
</svg>
