<?xml version="1.0" encoding="UTF-8"?>
<svg id="_Слой_2" data-name="Слой 2" xmlns="http://www.w3.org/2000/svg" viewBox="0 0 68.06 68.04">
  <defs>
    <style>
      .cls-1 {
        fill: #fff;
      }

      .cls-2 {
        fill: #15b2ff;
      }
    </style>
  </defs>
  <g id="_Слой_13" data-name="Слой 13">
    <g>
      <rect class="cls-1" x="2.86" y="4.85" width="58.76" height="57.1"/>
      <g>
        <path class="cls-2" d="m0,33.99c0-8.84,0-17.67,0-26.51C0,3.84,2.38.9,5.94.15,6.39.05,6.87,0,7.34,0,25.13,0,42.91,0,60.7,0c4.05,0,7.35,3.28,7.35,7.32,0,17.8,0,35.6,0,53.4,0,4.02-3.3,7.31-7.32,7.32-17.8,0-35.6,0-53.4,0-4.08,0-7.33-3.3-7.33-7.44,0-8.87,0-17.74,0-26.61Zm33.97,13.21c.11.07.16.1.21.14,3.84,2.84,7.67,5.68,11.52,8.49.5.36,1.09.64,1.68.82,1.17.35,2.12-.11,2.66-1.21.19-.39.35-.81.43-1.24,1.02-4.98,2.02-9.95,3.03-14.93,1.44-7.11,2.88-14.21,4.31-21.32.2-1,.43-2.01.47-3.02.06-1.45-.91-2.26-2.33-2.07-.26.03-.53.1-.78.2-4.53,1.71-9.05,3.44-13.58,5.15-9.94,3.76-19.88,7.53-29.82,11.29-1.26.48-2.53.95-3.8,1.43-.23.09-.46.21-.66.36-.65.46-1.03,1.06-.91,1.89.12.83.67,1.28,1.44,1.52,3.72,1.16,7.44,2.33,11.17,3.48.28.09.44.21.54.51,1.23,3.81,2.47,7.63,3.72,11.44.34,1.03.69,2.06,1.15,3.04.42.91,1.38,1.16,2.29.74.25-.12.5-.27.71-.46,1-.91,2-1.82,2.98-2.76,1.2-1.14,2.37-2.3,3.57-3.48Z"/>
        <path class="cls-2" d="m25.77,51.03c-1.47-4.51-2.94-9.02-4.42-13.56.89-.56,1.76-1.11,2.64-1.66,7.94-4.98,15.89-9.97,23.83-14.95.25-.16.53-.3.81-.35.45-.09.74.27.55.7-.1.23-.28.45-.48.63-3.66,3.3-7.32,6.6-10.99,9.9-3.48,3.13-6.95,6.25-10.42,9.39-.18.16-.32.43-.35.66-.37,3.07-.72,6.15-1.07,9.23l-.1.02Z"/>
      </g>
    </g>
  </g>
</svg>