<svg width="286" height="151" viewBox="0 0 286 151" fill="none" xmlns="http://www.w3.org/2000/svg">
<path d="M213.266 97.826C210.837 107.478 206 116.214 199.29 123.071C192.579 129.929 184.255 134.641 175.236 136.689C166.216 138.738 156.85 138.042 148.171 134.679C139.492 131.317 131.837 125.417 126.049 117.632L164.991 83.4992L213.266 97.826Z" fill="#40AEED"/>
<ellipse cx="53.6417" cy="50.7949" rx="53.6417" ry="50.7949" transform="matrix(-0.382902 -0.923789 0.898456 -0.439064 194.726 151)" fill="#40AEED"/>
<ellipse cx="100.172" cy="54.53" rx="50.0461" ry="54.3411" fill="#40AEED"/>
<ellipse cx="164.609" cy="61.3296" rx="50.0461" ry="54.3411" fill="#40AEED"/>
<ellipse cx="50.0461" cy="78.3528" rx="50.0461" ry="54.3411" fill="#40AEED"/>
<ellipse cx="113.96" cy="90.1375" rx="50.0461" ry="54.3411" fill="#40AEED"/>
<path d="M207.712 94.5185C205.482 102.676 201.044 110.059 194.886 115.855C188.728 121.65 181.089 125.633 172.812 127.364C164.534 129.095 155.94 128.507 147.975 125.665C140.011 122.823 132.985 117.837 127.674 111.257L163.41 82.4101L207.712 94.5185Z" fill="#DFF3FF"/>
<circle cx="213.729" cy="78.7293" r="45.9267" transform="rotate(-114.231 213.729 78.7293)" fill="#DFF3FF"/>
<circle cx="103.927" cy="57.9267" r="45.9267" fill="#DFF3FF"/>
<circle cx="163.06" cy="63.6732" r="45.9267" fill="#DFF3FF"/>
<circle cx="57.9267" cy="78.06" r="45.9267" fill="#DFF3FF"/>
<circle cx="116.58" cy="88.0199" r="45.9267" fill="#DFF3FF"/>
<path d="M72.08 76.28C72.24 77.16 72.36 78.04 72.44 78.92C72.52 79.8 72.5333 80.6933 72.48 81.6C72.48 81.9733 72.4533 82.36 72.4 82.76C72.3733 83.16 72.3333 83.5467 72.28 83.92C72.1467 84.6933 71.9067 85.4133 71.56 86.08C71.4 86.4 71.2 86.7333 70.96 87.08C70.7467 87.4267 70.4933 87.7333 70.2 88C69.9067 88.2933 69.5733 88.52 69.2 88.68C68.8533 88.84 68.48 88.8933 68.08 88.84C67.7067 88.8133 67.32 88.6667 66.92 88.4C66.76 88.2667 66.6 88.1333 66.44 88C66.28 87.8667 66.1333 87.72 66 87.56C65.7333 87.24 65.52 86.8933 65.36 86.52C65.2267 86.1467 65.1067 85.7733 65 85.4C64.7867 84.5733 64.6667 83.7467 64.64 82.92C64.6133 82.0933 64.5733 81.2667 64.52 80.44C64.4933 80.12 64.4933 79.8 64.52 79.48C64.5733 79.16 64.6 78.84 64.6 78.52C64.6267 78.1467 64.6267 77.7867 64.6 77.44C64.6 77.0933 64.5467 76.7467 64.44 76.4C64.2267 75.7333 63.8 75.32 63.16 75.16C62.6 75.0267 62.08 75.12 61.6 75.44C61.36 75.6 61.1467 75.8 60.96 76.04C60.7733 76.2533 60.6133 76.4933 60.48 76.76C60.2933 77.08 60.1333 77.4 60 77.72C59.8933 78.04 59.7867 78.36 59.68 78.68C59.6533 78.8133 59.6267 78.9333 59.6 79.04C59.5733 79.12 59.5467 79.2267 59.52 79.36C59.5467 79.92 59.5733 80.48 59.6 81.04C59.6267 81.6 59.6533 82.16 59.68 82.72C59.68 83.04 59.68 83.36 59.68 83.68C59.7067 84 59.72 84.32 59.72 84.64C59.72 85.0933 59.68 85.56 59.6 86.04C59.52 86.3867 59.3867 86.72 59.2 87.04C59.04 87.36 58.8267 87.6267 58.56 87.84C58.0267 88.2933 57.4267 88.5067 56.76 88.48C56.0933 88.48 55.4933 88.2933 54.96 87.92C54.6133 87.68 54.3067 87.4 54.04 87.08C53.8 86.76 53.5867 86.4133 53.4 86.04C53.1867 85.5867 53 85.1333 52.84 84.68C52.68 84.2 52.56 83.7067 52.48 83.2C52.2933 82.1867 52.2 81.16 52.2 80.12C52.2267 79.0533 52.2667 78 52.32 76.96C52.3733 75.9467 52.4133 74.96 52.44 74C52.4933 73.0133 52.48 72.0133 52.4 71C52.3467 70.36 52.2933 69.72 52.24 69.08C52.1867 68.4133 52.1333 67.76 52.08 67.12C52.0267 66.3467 52 65.56 52 64.76C52.0267 63.96 52.0933 63.1733 52.2 62.4C52.28 61.7867 52.4133 61.1467 52.6 60.48C52.7867 59.8133 53.1067 59.24 53.56 58.76C53.9067 58.3867 54.3867 58.1067 55 57.92C55.2133 57.84 55.44 57.7733 55.68 57.72C55.92 57.6667 56.16 57.6533 56.4 57.68C56.8533 57.7333 57.2533 57.8933 57.6 58.16C57.9467 58.4 58.24 58.7067 58.48 59.08C58.7733 59.5333 59 60.0133 59.16 60.52C59.32 61 59.4533 61.5067 59.56 62.04C59.6933 62.6533 59.7867 63.2667 59.84 63.88C59.92 64.4933 59.9867 65.1067 60.04 65.72C60.0667 66.3067 60.08 66.8933 60.08 67.48C60.08 68.0667 60.08 68.6533 60.08 69.24C61.0133 68.52 62.0267 68.0133 63.12 67.72C63.84 67.5067 64.56 67.4267 65.28 67.48C66.0267 67.5333 66.7333 67.7333 67.4 68.08C68.0933 68.4267 68.6933 68.88 69.2 69.44C69.7333 70 70.1733 70.6267 70.52 71.32C70.92 72.0933 71.24 72.9067 71.48 73.76C71.7467 74.5867 71.9467 75.4267 72.08 76.28ZM65.16 68.08C64.8667 68.2667 64.7333 68.5467 64.76 68.92C64.8133 69.2933 64.92 69.5867 65.08 69.8C65.3467 70.2 65.7067 70.48 66.16 70.64C66.64 70.8 67.1067 70.9467 67.56 71.08C67.9333 71.1867 68.3067 71.3067 68.68 71.44C69.08 71.5733 69.4667 71.7467 69.84 71.96C69.9733 72.0133 70.08 72.08 70.16 72.16C70.2667 72.24 70.3733 72.32 70.48 72.4C70.2667 71.92 70.0267 71.4533 69.76 71C69.52 70.5467 69.2133 70.12 68.84 69.72C68.3867 69.24 67.8667 68.8533 67.28 68.56C66.6933 68.24 66.08 68.0533 65.44 68C65.3867 68 65.36 68.0133 65.36 68.04C65.2533 68.04 65.1867 68.0533 65.16 68.08ZM57.64 58.76C57.0533 58.2 56.3333 58.0267 55.48 58.24C55.32 58.4 55.1733 58.5867 55.04 58.8C54.9333 58.9867 54.8933 59.1867 54.92 59.4C54.9467 59.72 55.1067 60.0267 55.4 60.32C55.6933 60.64 56.0133 60.92 56.36 61.16C56.7067 61.4 57.0667 61.64 57.44 61.88C57.76 62.12 58.08 62.3867 58.4 62.68C58.72 62.9467 58.9867 63.2667 59.2 63.64C59.3067 63.7733 59.3733 63.92 59.4 64.08C59.32 63.1467 59.16 62.2133 58.92 61.28C58.7867 60.8267 58.6267 60.3867 58.44 59.96C58.2533 59.5067 57.9867 59.1067 57.64 58.76ZM92.2191 70.24C92.3524 70.8267 92.4191 71.4133 92.4191 72C92.4457 72.5867 92.4324 73.1867 92.3791 73.8C92.3257 74.3867 92.2591 74.9733 92.1791 75.56C92.1257 76.1467 92.0857 76.7467 92.0591 77.36C92.0057 77.9733 91.9791 78.6 91.9791 79.24C91.9791 79.88 91.9657 80.52 91.9391 81.16C91.9124 81.6933 91.8857 82.2133 91.8591 82.72C91.8324 83.2267 91.7924 83.7333 91.7391 84.24C91.6857 84.6133 91.6324 84.9733 91.5791 85.32C91.5257 85.6667 91.4457 86.0133 91.3391 86.36C91.2057 86.68 91.0591 86.9867 90.8991 87.28C90.7657 87.5733 90.5524 87.8267 90.2591 88.04C89.9657 88.2533 89.6324 88.3867 89.2591 88.44C88.9124 88.4933 88.5657 88.48 88.2191 88.4C87.6324 88.2667 87.1657 87.9867 86.8191 87.56C86.4724 87.1067 86.1924 86.6133 85.9791 86.08C85.4991 86.5333 84.9657 86.92 84.3791 87.24C83.8191 87.56 83.2324 87.8 82.6191 87.96C81.8191 88.2 80.9924 88.28 80.1391 88.2C79.2857 88.1467 78.4991 87.8933 77.7791 87.44C77.2191 87.0933 76.7391 86.6667 76.3391 86.16C75.9657 85.6533 75.6591 85.0933 75.4191 84.48C75.1257 83.84 74.9124 83.1733 74.7791 82.48C74.6724 81.76 74.6057 81.0533 74.5791 80.36C74.5257 79.6133 74.5257 78.88 74.5791 78.16C74.6324 77.4133 74.7257 76.68 74.8591 75.96C74.9924 75.32 75.1391 74.6933 75.2991 74.08C75.4857 73.44 75.7124 72.8133 75.9791 72.2C76.3257 71.4 76.7791 70.64 77.3391 69.92C77.8991 69.1733 78.6057 68.6267 79.4591 68.28C79.6724 68.2 79.9524 68.1467 80.2991 68.12C80.6457 68.0933 81.0057 68.0933 81.3791 68.12C81.7791 68.1467 82.1524 68.2 82.4991 68.28C82.8457 68.3333 83.1257 68.4133 83.3391 68.52C84.0857 68.8933 84.6591 69.28 85.0591 69.68C85.4591 70.08 85.8857 70.64 86.3391 71.36V70.96C86.3924 70.5333 86.4724 70.12 86.5791 69.72C86.7124 69.32 86.9257 68.9733 87.2191 68.68C87.6991 68.1733 88.2857 67.88 88.9791 67.8C89.6991 67.6933 90.3524 67.8267 90.9391 68.2C91.3124 68.44 91.5924 68.7333 91.7791 69.08C91.9657 69.4267 92.1124 69.8133 92.2191 70.24ZM82.3391 81.76C82.7391 81.7333 83.1257 81.6667 83.4991 81.56C83.7924 81.4533 84.0991 81.2933 84.4191 81.08C84.7391 80.84 84.9924 80.4933 85.1791 80.04C85.3924 79.5067 85.3924 78.9467 85.1791 78.36C84.9924 77.7467 84.6991 77.2267 84.2991 76.8C83.8991 76.3467 83.3791 76.04 82.7391 75.88C82.4191 75.8 82.0857 75.7867 81.7391 75.84C81.4191 75.8933 81.1124 75.9867 80.8191 76.12H80.7791L80.6591 76.36C80.4724 76.7067 80.3391 77.0933 80.2591 77.52C80.1791 77.9733 80.1524 78.44 80.1791 78.92C80.2324 79.3733 80.3524 79.8267 80.5391 80.28C80.6724 80.68 80.8857 81.0267 81.1791 81.32C81.4991 81.5867 81.8857 81.7333 82.3391 81.76ZM85.6591 71.56C85.3657 70.92 84.9924 70.4 84.5391 70C84.1124 69.5733 83.6591 69.2533 83.1791 69.04C82.7257 68.8 82.3124 68.6667 81.9391 68.64C81.5657 68.5867 81.3257 68.6133 81.2191 68.72C81.1124 68.8533 81.0591 69.0133 81.0591 69.2C81.0857 69.36 81.1257 69.5067 81.1791 69.64C81.2057 69.8267 81.2857 69.9867 81.4191 70.12C81.5524 70.2533 81.6857 70.3867 81.8191 70.52C82.0324 70.76 82.3257 71 82.6991 71.24C82.9124 71.4 83.0991 71.56 83.2591 71.72C83.4457 71.88 83.6457 72.04 83.8591 72.2C84.2857 72.52 84.6991 72.84 85.0991 73.16C85.5257 73.4533 85.9257 73.7867 86.2991 74.16C86.2457 73.9733 86.1924 73.8 86.1391 73.64C86.0857 73.4533 86.0324 73.2667 85.9791 73.08C85.9257 72.8133 85.8857 72.56 85.8591 72.32C85.8591 72.0533 85.7924 71.8 85.6591 71.56ZM91.8191 74.72C91.8724 74.1333 91.9124 73.5467 91.9391 72.96C91.9924 72.3733 91.9791 71.7867 91.8991 71.2C91.8457 70.7467 91.7524 70.3067 91.6191 69.88C91.4857 69.4267 91.2324 69.0533 90.8591 68.76C90.5657 68.52 90.2324 68.36 89.8591 68.28C89.5124 68.2 89.1524 68.2133 88.7791 68.32L88.7391 68.36C88.6324 68.44 88.5257 68.5333 88.4191 68.64C88.3391 68.72 88.2724 68.8267 88.2191 68.96C88.1657 69.12 88.2191 69.3067 88.3791 69.52C88.4591 69.6533 88.5524 69.76 88.6591 69.84C88.7657 69.92 88.8857 70.0133 89.0191 70.12C89.2857 70.3067 89.5524 70.48 89.8191 70.64C90.0857 70.8 90.3257 71 90.5391 71.24C90.8057 71.56 91.0057 71.9333 91.1391 72.36C91.2991 72.76 91.4324 73.1467 91.5391 73.52C91.5924 73.7333 91.6457 73.9333 91.6991 74.12C91.7524 74.3067 91.7924 74.5067 91.8191 74.72ZM79.7791 79.2C79.6457 78.3733 79.6991 77.5867 79.9391 76.84C79.8857 76.92 79.8324 77.0133 79.7791 77.12C79.7257 77.2 79.6724 77.28 79.6191 77.36C79.4057 77.8133 79.2457 78.2933 79.1391 78.8C79.0591 79.28 79.0457 79.7733 79.0991 80.28C79.1257 80.7333 79.1924 81.1867 79.2991 81.64C79.4324 82.0933 79.6324 82.5067 79.8991 82.88C80.1391 83.2267 80.4724 83.4933 80.8991 83.68C81.3257 83.8667 81.7524 83.8933 82.1791 83.76C82.3391 83.7067 82.4991 83.64 82.6591 83.56C82.8457 83.4533 82.9657 83.3067 83.0191 83.12C83.0724 82.9333 83.0591 82.7733 82.9791 82.64C82.9257 82.5067 82.8324 82.3733 82.6991 82.24C82.4057 82.2667 82.0991 82.24 81.7791 82.16C81.4857 82.08 81.2057 81.9333 80.9391 81.72C80.5657 81.4267 80.2857 81.0533 80.0991 80.6C79.9391 80.12 79.8324 79.6533 79.7791 79.2ZM101.501 73.76C101.501 74.8533 101.448 75.9333 101.341 77C101.234 78.04 101.194 79.1067 101.221 80.2C101.221 80.7867 101.234 81.3733 101.261 81.96C101.288 82.52 101.288 83.1067 101.261 83.72C101.234 84.28 101.181 84.8667 101.101 85.48C101.021 86.0933 100.808 86.6533 100.461 87.16C100.168 87.6133 99.7809 87.92 99.3009 88.08C99.0076 88.1867 98.7009 88.2267 98.3809 88.2C98.0876 88.2 97.7943 88.16 97.5009 88.08C97.1543 87.9733 96.8343 87.8533 96.5409 87.72C96.2743 87.56 96.0343 87.3467 95.8209 87.08C95.6076 86.8133 95.4209 86.5333 95.2609 86.24C95.1276 85.92 95.0076 85.6 94.9009 85.28C94.6876 84.5333 94.5543 83.7867 94.5009 83.04C94.4743 82.2667 94.4743 81.4933 94.5009 80.72C94.5276 80.1067 94.5409 79.4933 94.5409 78.88C94.5676 78.24 94.5676 77.6133 94.5409 77C94.5143 76.3067 94.5009 75.6267 94.5009 74.96C94.5009 74.2933 94.5276 73.6133 94.5809 72.92C94.6343 72.3067 94.7276 71.68 94.8609 71.04C95.0209 70.4 95.2876 69.8133 95.6609 69.28C96.0076 68.8 96.4343 68.44 96.9409 68.2C97.4209 67.9867 97.8609 67.8933 98.2609 67.92C98.6876 67.92 99.0743 68.0133 99.4209 68.2C99.7676 68.36 100.074 68.5867 100.341 68.88C100.608 69.1733 100.808 69.48 100.941 69.8C101.074 70.0933 101.168 70.4133 101.221 70.76C101.301 71.08 101.368 71.4 101.421 71.72C101.474 72.0667 101.501 72.4133 101.501 72.76C101.501 73.08 101.501 73.4133 101.501 73.76ZM101.341 58.76C101.848 59.64 102.034 60.5867 101.901 61.6C101.848 62.2133 101.648 62.8133 101.301 63.4C100.954 63.96 100.461 64.3467 99.8209 64.56C99.2876 64.72 98.7409 64.7467 98.1809 64.64C97.6476 64.5067 97.1543 64.2933 96.7009 64C96.2476 63.7067 95.8209 63.3467 95.4209 62.92C95.0476 62.4667 94.7809 61.9733 94.6209 61.44C94.4876 61.04 94.4476 60.6533 94.5009 60.28C94.5809 59.9067 94.6876 59.56 94.8209 59.24C94.9809 58.92 95.1409 58.6533 95.3009 58.44C95.4876 58.2 95.6476 58.0267 95.7809 57.92C96.3143 57.4667 96.9543 57.24 97.7009 57.24C98.4743 57.2133 99.1676 57.3067 99.7809 57.52C100.101 57.6533 100.394 57.8133 100.661 58C100.928 58.1867 101.154 58.44 101.341 58.76ZM100.461 69.92C100.168 69.28 99.7676 68.8667 99.2609 68.68C98.7543 68.4667 98.2876 68.4133 97.8609 68.52C97.4609 68.6267 97.1809 68.8667 97.0209 69.24C96.8876 69.6133 97.0209 70.0533 97.4209 70.56C97.6609 70.8533 97.9143 71.12 98.1809 71.36C98.4476 71.5733 98.7009 71.8 98.9409 72.04C99.2876 72.3867 99.5943 72.7467 99.8609 73.12C100.154 73.4667 100.408 73.8667 100.621 74.32C100.701 74.5067 100.768 74.68 100.821 74.84C100.874 75 100.928 75.1867 100.981 75.4C101.008 75 101.021 74.6133 101.021 74.24C101.048 73.84 101.048 73.4533 101.021 73.08C101.021 72.4667 100.968 71.9067 100.861 71.4C100.808 71.16 100.754 70.92 100.701 70.68C100.674 70.4133 100.594 70.16 100.461 69.92ZM101.381 61.96C101.408 61.8267 101.421 61.7067 101.421 61.6C101.448 61.4667 101.461 61.3333 101.461 61.2C101.461 60.7467 101.394 60.28 101.261 59.8C101.154 59.2933 100.941 58.88 100.621 58.56C100.408 58.3467 100.141 58.1867 99.8209 58.08C99.5276 57.9467 99.2343 57.8533 98.9409 57.8C98.4876 57.72 98.0076 57.6933 97.5009 57.72C97.3676 57.88 97.2876 58.0533 97.2609 58.24C97.2609 58.2933 97.2609 58.36 97.2609 58.44C97.2609 58.4933 97.2743 58.5467 97.3009 58.6C97.3276 58.6533 97.3543 58.72 97.3809 58.8C97.4343 58.88 97.4876 58.9467 97.5409 59C97.5943 59.0533 97.6609 59.12 97.7409 59.2C97.8209 59.28 97.9009 59.3467 97.9809 59.4C98.3809 59.72 98.8076 60 99.2609 60.24C99.7143 60.48 100.154 60.7467 100.581 61.04C100.741 61.1733 100.888 61.3067 101.021 61.44C101.181 61.5733 101.288 61.7333 101.341 61.92L101.381 61.96ZM121.953 72.2C122.06 72.76 122.126 73.32 122.153 73.88C122.18 74.44 122.086 74.9867 121.873 75.52C121.686 75.9733 121.406 76.3733 121.033 76.72C120.66 77.0667 120.246 77.3067 119.793 77.44C119.393 77.5467 118.98 77.5867 118.553 77.56C118.153 77.5067 117.74 77.4533 117.313 77.4C116.86 77.3467 116.42 77.32 115.993 77.32C115.566 77.32 115.126 77.3867 114.673 77.52C113.98 77.76 113.353 78.2 112.793 78.84C112.606 79.0533 112.433 79.28 112.273 79.52C112.113 79.7333 111.966 79.96 111.833 80.2C111.86 80.6533 111.873 81.1067 111.873 81.56C111.9 82.0133 111.9 82.4667 111.873 82.92C111.873 83.6133 111.753 84.32 111.513 85.04C111.273 85.7333 110.966 86.3733 110.593 86.96C110.22 87.4933 109.753 87.9467 109.193 88.32C108.66 88.72 108.046 88.8 107.353 88.56C106.98 88.4267 106.633 88.2267 106.313 87.96C105.993 87.6667 105.726 87.3467 105.513 87C105.3 86.6533 105.126 86.28 104.993 85.88C104.886 85.48 104.806 85.0667 104.753 84.64C104.62 83.76 104.566 82.8667 104.593 81.96C104.62 81.0533 104.58 80.16 104.473 79.28C104.34 78.08 104.193 76.88 104.033 75.68C103.873 74.4533 103.913 73.24 104.153 72.04C104.313 71.24 104.606 70.5333 105.033 69.92C105.433 69.3333 105.913 68.8133 106.473 68.36C106.846 68.12 107.26 67.8933 107.713 67.68C107.74 67.6533 107.766 67.64 107.793 67.64C107.82 67.6133 107.846 67.5867 107.873 67.56C108.006 67.48 108.113 67.48 108.193 67.56C108.806 67.3733 109.38 67.44 109.913 67.76C110.233 67.9467 110.486 68.2 110.673 68.52C110.886 68.8133 111.046 69.1467 111.153 69.52C111.26 69.8667 111.326 70.24 111.353 70.64C111.406 71.0133 111.446 71.3733 111.473 71.72C111.5 72.0933 111.513 72.4533 111.513 72.8C111.513 73.12 111.513 73.4667 111.513 73.84C111.726 73.3867 111.953 72.9467 112.193 72.52C112.433 72.0667 112.7 71.6267 112.993 71.2C113.233 70.8533 113.473 70.52 113.713 70.2C113.98 69.8533 114.273 69.5333 114.593 69.24C114.913 68.9733 115.246 68.7467 115.593 68.56C115.966 68.3733 116.366 68.2533 116.793 68.2C117.566 68.0667 118.313 68.16 119.033 68.48C119.753 68.8 120.353 69.2667 120.833 69.88C121.1 70.2 121.326 70.56 121.513 70.96C121.726 71.36 121.873 71.7733 121.953 72.2ZM121.553 75C121.633 74.6533 121.673 74.28 121.673 73.88C121.673 73.3467 121.606 72.7733 121.473 72.16C121.34 71.76 121.18 71.3733 120.993 71C120.806 70.6 120.566 70.2533 120.273 69.96C119.82 69.48 119.286 69.12 118.673 68.88C118.06 68.6133 117.433 68.5467 116.793 68.68C116.793 68.7867 116.753 68.8533 116.673 68.88C116.433 69.04 116.26 69.2133 116.153 69.4C116.046 69.64 116.113 69.8667 116.353 70.08C116.593 70.2933 116.806 70.4533 116.993 70.56C117.26 70.7467 117.526 70.9067 117.793 71.04C118.086 71.1733 118.38 71.3067 118.673 71.44C119.366 71.7867 119.993 72.28 120.553 72.92C121.14 73.5333 121.473 74.2267 121.553 75ZM107.833 68.24C107.62 68.5067 107.526 68.8 107.553 69.12C107.58 69.3867 107.713 69.68 107.953 70C108.193 70.2933 108.446 70.5733 108.713 70.84C109.006 71.1067 109.286 71.3867 109.553 71.68C109.9 72.0533 110.193 72.4667 110.433 72.92C110.673 73.3733 110.86 73.8267 110.993 74.28C110.993 74.3067 111.006 74.32 111.033 74.32V73C111.033 72.6533 111.02 72.32 110.993 72C110.993 71.6533 110.98 71.3067 110.953 70.96C110.9 70.6667 110.846 70.3867 110.793 70.12C110.766 69.8267 110.7 69.5467 110.593 69.28C110.46 68.9867 110.3 68.7333 110.113 68.52C109.926 68.3067 109.686 68.1467 109.393 68.04C109.153 67.96 108.913 67.9333 108.673 67.96C108.433 67.9867 108.193 68.04 107.953 68.12L107.833 68.24ZM152.171 81.32C152.197 81.8267 152.131 82.32 151.971 82.8C151.837 83.2533 151.637 83.7067 151.371 84.16C150.864 85.0133 150.197 85.7733 149.371 86.44C149.024 86.7333 148.651 87.0133 148.251 87.28C147.877 87.5467 147.464 87.7733 147.011 87.96C146.157 88.28 145.251 88.4 144.291 88.32C143.331 88.24 142.464 87.9733 141.691 87.52C140.864 87.0933 140.184 86.4667 139.651 85.64C139.384 85.24 139.171 84.8133 139.011 84.36C138.851 83.88 138.717 83.4 138.611 82.92C138.397 81.8267 138.277 80.7333 138.251 79.64C138.224 78.5467 138.211 77.4533 138.211 76.36V73.56C137.784 73.6133 137.384 73.5467 137.011 73.36C136.664 73.1733 136.344 72.92 136.051 72.6C135.784 72.28 135.557 71.92 135.371 71.52C135.184 71.12 135.051 70.7333 134.971 70.36C134.891 69.88 134.891 69.4 134.971 68.92C135.051 68.44 135.237 68 135.531 67.6C135.877 67.1467 136.331 66.84 136.891 66.68C137.451 66.4933 137.997 66.4 138.531 66.4C138.557 66.08 138.571 65.76 138.571 65.44C138.597 65.12 138.637 64.8 138.691 64.48C138.717 64.16 138.744 63.84 138.771 63.52C138.824 63.2 138.891 62.8933 138.971 62.6C139.077 62.12 139.251 61.5467 139.491 60.88C139.731 60.2133 140.037 59.6133 140.411 59.08C140.784 58.52 141.224 58.1067 141.731 57.84C142.237 57.5467 142.837 57.56 143.531 57.88C144.224 58.1733 144.757 58.6533 145.131 59.32C145.317 59.6933 145.451 60.08 145.531 60.48C145.611 60.88 145.677 61.28 145.731 61.68C145.784 62.1333 145.811 62.5733 145.811 63C145.811 63.4 145.811 63.8267 145.811 64.28C145.811 64.4667 145.811 64.6533 145.811 64.84C145.811 65 145.797 65.1733 145.771 65.36C145.771 65.5467 145.771 65.7333 145.771 65.92C145.797 66.08 145.811 66.2533 145.811 66.44C146.184 66.3333 146.571 66.2667 146.971 66.24C147.397 66.1867 147.797 66.2267 148.171 66.36C148.651 66.52 149.037 66.7733 149.331 67.12C149.624 67.44 149.837 67.8133 149.971 68.24C150.131 68.64 150.211 69.08 150.211 69.56C150.211 70.0133 150.144 70.4533 150.011 70.88C149.877 71.3067 149.664 71.7067 149.371 72.08C149.104 72.4533 148.771 72.7467 148.371 72.96C147.944 73.1733 147.504 73.28 147.051 73.28C146.624 73.2533 146.197 73.1733 145.771 73.04C145.771 73.4667 145.771 73.8933 145.771 74.32C145.771 74.7467 145.784 75.1867 145.811 75.64C145.811 76.2 145.851 76.76 145.931 77.32C145.984 77.5333 146.024 77.7467 146.051 77.96C146.077 78.1733 146.131 78.3867 146.211 78.6C146.237 78.6267 146.277 78.6933 146.331 78.8C146.331 78.8267 146.331 78.8533 146.331 78.88C146.357 78.88 146.371 78.8933 146.371 78.92H146.411V78.96L146.491 79L146.531 79.04H146.611C146.637 79.04 146.651 79.0267 146.651 79L146.811 78.92C146.971 78.7867 147.117 78.6133 147.251 78.4L147.291 78.36C147.477 78.12 147.664 77.9467 147.851 77.84C148.171 77.6267 148.504 77.5333 148.851 77.56C149.197 77.56 149.531 77.64 149.851 77.8C150.171 77.9333 150.464 78.1333 150.731 78.4C151.024 78.64 151.264 78.8933 151.451 79.16C151.931 79.8533 152.171 80.5733 152.171 81.32ZM141.731 58.68C141.704 58.9467 141.771 59.2 141.931 59.44C142.117 59.68 142.277 59.9067 142.411 60.12C142.757 60.5467 143.171 60.9733 143.651 61.4C144.077 61.8267 144.437 62.3067 144.731 62.84C145.024 63.3733 145.224 63.9467 145.331 64.56V63.68C145.331 63.2267 145.317 62.8 145.291 62.4C145.291 61.9733 145.251 61.5333 145.171 61.08C145.117 60.7067 145.024 60.3467 144.891 60C144.784 59.6267 144.597 59.3067 144.331 59.04C144.117 58.8267 143.864 58.6267 143.571 58.44C143.277 58.2533 142.984 58.1467 142.691 58.12C142.664 58.1467 142.637 58.16 142.611 58.16C142.477 58.1867 142.357 58.2133 142.251 58.24C142.144 58.2667 142.037 58.32 141.931 58.4C141.797 58.48 141.731 58.5733 141.731 58.68ZM151.211 83.44C151.424 83.0133 151.571 82.5867 151.651 82.16C151.731 81.7333 151.731 81.2933 151.651 80.84C151.597 80.4667 151.477 80.12 151.291 79.8C151.104 79.48 150.891 79.2 150.651 78.96C150.437 78.72 150.184 78.5067 149.891 78.32C149.597 78.1333 149.277 78.0267 148.931 78C148.771 78 148.664 78.0133 148.611 78.04C148.504 78.1467 148.397 78.2533 148.291 78.36C148.211 78.44 148.144 78.5467 148.091 78.68C148.011 78.84 147.971 79 147.971 79.16V79.2H148.011V79.28C148.011 79.3333 148.024 79.3733 148.051 79.4C148.051 79.4267 148.051 79.44 148.051 79.44C148.077 79.44 148.091 79.4533 148.091 79.48C148.091 79.5067 148.091 79.5333 148.091 79.56C148.117 79.56 148.131 79.5733 148.131 79.6C148.184 79.6533 148.237 79.72 148.291 79.8C148.371 79.88 148.451 79.9467 148.531 80C148.877 80.32 149.237 80.6133 149.611 80.88C150.011 81.12 150.357 81.4267 150.651 81.8C151.024 82.2 151.224 82.6133 151.251 83.04C151.251 83.2 151.237 83.3333 151.211 83.44ZM146.491 67.32C146.491 67.4533 146.517 67.5733 146.571 67.68C146.624 67.76 146.677 67.8533 146.731 67.96C147.024 68.3067 147.411 68.64 147.891 68.96C148.131 69.12 148.371 69.28 148.611 69.44C148.851 69.6 149.064 69.7867 149.251 70C149.437 70.2933 149.531 70.5333 149.531 70.72C149.691 70.2133 149.757 69.7067 149.731 69.2C149.677 68.8267 149.571 68.4533 149.411 68.08C149.251 67.68 149.011 67.36 148.691 67.12C148.237 66.8 147.731 66.6667 147.171 66.72C147.144 66.8 147.091 66.8533 147.011 66.88C146.904 66.9333 146.784 66.9867 146.651 67.04C146.544 67.0933 146.491 67.1867 146.491 67.32ZM170.147 77.52C170.28 79.2 170.16 80.8533 169.787 82.48C169.707 82.9067 169.613 83.32 169.507 83.72C169.4 84.12 169.28 84.5067 169.147 84.88C169.013 85.28 168.853 85.68 168.667 86.08C168.48 86.4533 168.24 86.8 167.947 87.12C167.68 87.44 167.373 87.68 167.027 87.84C166.707 88 166.347 88.1333 165.947 88.24C165.493 88.3733 165.027 88.4533 164.547 88.48C164.067 88.5067 163.6 88.52 163.147 88.52C162.693 88.52 162.24 88.5067 161.787 88.48C161.333 88.4533 160.88 88.4 160.427 88.32C159.52 88.16 158.693 87.7867 157.947 87.2C157.173 86.6133 156.547 85.92 156.067 85.12C155.587 84.2933 155.2 83.44 154.907 82.56C154.72 81.9733 154.573 81.4 154.467 80.84C154.36 80.2533 154.293 79.6533 154.267 79.04C154.213 78.4267 154.213 77.8267 154.267 77.24C154.32 76.6533 154.413 76.0667 154.547 75.48C154.653 74.92 154.787 74.3733 154.947 73.84C155.107 73.28 155.32 72.7467 155.587 72.24C155.8 71.7867 156.04 71.3867 156.307 71.04C156.6 70.6667 156.92 70.32 157.267 70C157.88 69.4133 158.587 68.9067 159.387 68.48C160.187 68.0533 161.013 67.84 161.867 67.84C162.293 67.68 162.773 67.6667 163.307 67.8C163.68 67.88 164.04 68.0133 164.387 68.2C164.733 68.3867 165.053 68.6 165.347 68.84C165.667 69.08 165.973 69.3333 166.267 69.6C166.56 69.8667 166.84 70.1467 167.107 70.44C167.4 70.7333 167.653 71.04 167.867 71.36C168.08 71.6533 168.293 71.9867 168.507 72.36C168.773 72.8667 169.013 73.3867 169.227 73.92C169.467 74.4267 169.653 74.96 169.787 75.52C169.867 75.8133 169.92 76.1067 169.947 76.4C170 76.6933 170.053 76.9867 170.107 77.28C170.107 77.3333 170.12 77.3733 170.147 77.4V77.52ZM163.227 82.12C163.52 82.0933 163.773 82.0133 163.987 81.88C164.227 81.72 164.44 81.5333 164.627 81.32C164.947 80.9467 165.173 80.52 165.307 80.04C165.44 79.56 165.507 79.08 165.507 78.6C165.507 78.2 165.467 77.7733 165.387 77.32C165.307 76.8667 165.16 76.4533 164.947 76.08C164.76 75.68 164.507 75.3333 164.187 75.04C163.893 74.7467 163.533 74.5467 163.107 74.44C162.733 74.3067 162.347 74.28 161.947 74.36C161.573 74.4133 161.227 74.5333 160.907 74.72C160.64 75.0133 160.467 75.4133 160.387 75.92C160.253 76.4533 160.187 77 160.187 77.56C160.213 78.0933 160.293 78.6267 160.427 79.16C160.507 79.7467 160.68 80.28 160.947 80.76C161.107 81.0533 161.333 81.3333 161.627 81.6C161.92 81.84 162.253 82 162.627 82.08C162.653 82.1067 162.707 82.12 162.787 82.12C162.813 82.0933 162.867 82.08 162.947 82.08C163 82.08 163.04 82.0933 163.067 82.12C163.12 82.12 163.173 82.12 163.227 82.12ZM162.827 68.2C162.613 68.36 162.4 68.56 162.187 68.8C162 69.0133 161.933 69.2667 161.987 69.56C162.04 69.8533 162.16 70.1067 162.347 70.32C162.533 70.5067 162.733 70.6933 162.947 70.88C163.48 71.3333 164.053 71.72 164.667 72.04C165.28 72.3333 165.893 72.6667 166.507 73.04C166.907 73.3067 167.293 73.5867 167.667 73.88C168.067 74.1467 168.427 74.4667 168.747 74.84C168.96 75.0533 169.147 75.28 169.307 75.52C169.2 75.1467 169.067 74.7867 168.907 74.44C168.773 74.0667 168.627 73.6933 168.467 73.32C168.253 72.92 168.04 72.5333 167.827 72.16C167.613 71.76 167.36 71.4 167.067 71.08C166.533 70.4667 165.987 69.9333 165.427 69.48C165.133 69.24 164.813 69.0267 164.467 68.84C164.147 68.6267 163.8 68.4533 163.427 68.32C163.213 68.24 163.027 68.2 162.867 68.2H162.827ZM160.107 79.96C159.92 79.3467 159.8 78.7067 159.747 78.04C159.693 77.3467 159.733 76.6667 159.867 76C159.867 75.9467 159.867 75.9067 159.867 75.88C159.893 75.8533 159.907 75.8133 159.907 75.76C159.56 76.3733 159.32 77.0533 159.187 77.8C159.053 78.52 159.013 79.2267 159.067 79.92C159.093 80.3733 159.147 80.8267 159.227 81.28C159.333 81.7333 159.493 82.16 159.707 82.56C159.92 82.9333 160.187 83.2933 160.507 83.64C160.853 83.9867 161.253 84.2 161.707 84.28C162.027 84.3333 162.333 84.2933 162.627 84.16C162.947 84.0267 163.2 83.8267 163.387 83.56C163.44 83.4533 163.493 83.3467 163.547 83.24C163.6 83.1333 163.6 83.0267 163.547 82.92C163.52 82.7867 163.413 82.6933 163.227 82.64H163.027C162.573 82.6133 162.147 82.4933 161.747 82.28C161.373 82.04 161.053 81.7333 160.787 81.36C160.52 81.0133 160.293 80.5467 160.107 79.96ZM188.154 77.52C188.288 79.2 188.168 80.8533 187.794 82.48C187.714 82.9067 187.621 83.32 187.514 83.72C187.408 84.12 187.288 84.5067 187.154 84.88C187.021 85.28 186.861 85.68 186.674 86.08C186.488 86.4533 186.248 86.8 185.954 87.12C185.688 87.44 185.381 87.68 185.034 87.84C184.714 88 184.354 88.1333 183.954 88.24C183.501 88.3733 183.034 88.4533 182.554 88.48C182.074 88.5067 181.608 88.52 181.154 88.52C180.701 88.52 180.248 88.5067 179.794 88.48C179.341 88.4533 178.888 88.4 178.434 88.32C177.528 88.16 176.701 87.7867 175.954 87.2C175.181 86.6133 174.554 85.92 174.074 85.12C173.594 84.2933 173.208 83.44 172.914 82.56C172.728 81.9733 172.581 81.4 172.474 80.84C172.368 80.2533 172.301 79.6533 172.274 79.04C172.221 78.4267 172.221 77.8267 172.274 77.24C172.328 76.6533 172.421 76.0667 172.554 75.48C172.661 74.92 172.794 74.3733 172.954 73.84C173.114 73.28 173.328 72.7467 173.594 72.24C173.808 71.7867 174.048 71.3867 174.314 71.04C174.608 70.6667 174.928 70.32 175.274 70C175.888 69.4133 176.594 68.9067 177.394 68.48C178.194 68.0533 179.021 67.84 179.874 67.84C180.301 67.68 180.781 67.6667 181.314 67.8C181.688 67.88 182.048 68.0133 182.394 68.2C182.741 68.3867 183.061 68.6 183.354 68.84C183.674 69.08 183.981 69.3333 184.274 69.6C184.568 69.8667 184.848 70.1467 185.114 70.44C185.408 70.7333 185.661 71.04 185.874 71.36C186.088 71.6533 186.301 71.9867 186.514 72.36C186.781 72.8667 187.021 73.3867 187.234 73.92C187.474 74.4267 187.661 74.96 187.794 75.52C187.874 75.8133 187.928 76.1067 187.954 76.4C188.008 76.6933 188.061 76.9867 188.114 77.28C188.114 77.3333 188.128 77.3733 188.154 77.4V77.52ZM181.234 82.12C181.528 82.0933 181.781 82.0133 181.994 81.88C182.234 81.72 182.448 81.5333 182.634 81.32C182.954 80.9467 183.181 80.52 183.314 80.04C183.448 79.56 183.514 79.08 183.514 78.6C183.514 78.2 183.474 77.7733 183.394 77.32C183.314 76.8667 183.168 76.4533 182.954 76.08C182.768 75.68 182.514 75.3333 182.194 75.04C181.901 74.7467 181.541 74.5467 181.114 74.44C180.741 74.3067 180.354 74.28 179.954 74.36C179.581 74.4133 179.234 74.5333 178.914 74.72C178.648 75.0133 178.474 75.4133 178.394 75.92C178.261 76.4533 178.194 77 178.194 77.56C178.221 78.0933 178.301 78.6267 178.434 79.16C178.514 79.7467 178.688 80.28 178.954 80.76C179.114 81.0533 179.341 81.3333 179.634 81.6C179.928 81.84 180.261 82 180.634 82.08C180.661 82.1067 180.714 82.12 180.794 82.12C180.821 82.0933 180.874 82.08 180.954 82.08C181.008 82.08 181.048 82.0933 181.074 82.12C181.128 82.12 181.181 82.12 181.234 82.12ZM180.834 68.2C180.621 68.36 180.408 68.56 180.194 68.8C180.008 69.0133 179.941 69.2667 179.994 69.56C180.048 69.8533 180.168 70.1067 180.354 70.32C180.541 70.5067 180.741 70.6933 180.954 70.88C181.488 71.3333 182.061 71.72 182.674 72.04C183.288 72.3333 183.901 72.6667 184.514 73.04C184.914 73.3067 185.301 73.5867 185.674 73.88C186.074 74.1467 186.434 74.4667 186.754 74.84C186.968 75.0533 187.154 75.28 187.314 75.52C187.208 75.1467 187.074 74.7867 186.914 74.44C186.781 74.0667 186.634 73.6933 186.474 73.32C186.261 72.92 186.048 72.5333 185.834 72.16C185.621 71.76 185.368 71.4 185.074 71.08C184.541 70.4667 183.994 69.9333 183.434 69.48C183.141 69.24 182.821 69.0267 182.474 68.84C182.154 68.6267 181.808 68.4533 181.434 68.32C181.221 68.24 181.034 68.2 180.874 68.2H180.834ZM178.114 79.96C177.928 79.3467 177.808 78.7067 177.754 78.04C177.701 77.3467 177.741 76.6667 177.874 76C177.874 75.9467 177.874 75.9067 177.874 75.88C177.901 75.8533 177.914 75.8133 177.914 75.76C177.568 76.3733 177.328 77.0533 177.194 77.8C177.061 78.52 177.021 79.2267 177.074 79.92C177.101 80.3733 177.154 80.8267 177.234 81.28C177.341 81.7333 177.501 82.16 177.714 82.56C177.928 82.9333 178.194 83.2933 178.514 83.64C178.861 83.9867 179.261 84.2 179.714 84.28C180.034 84.3333 180.341 84.2933 180.634 84.16C180.954 84.0267 181.208 83.8267 181.394 83.56C181.448 83.4533 181.501 83.3467 181.554 83.24C181.608 83.1333 181.608 83.0267 181.554 82.92C181.528 82.7867 181.421 82.6933 181.234 82.64H181.034C180.581 82.6133 180.154 82.4933 179.754 82.28C179.381 82.04 179.061 81.7333 178.794 81.36C178.528 81.0133 178.301 80.5467 178.114 79.96ZM198.642 75C198.749 76.44 198.816 77.9067 198.842 79.4C198.896 80.8667 198.816 82.3333 198.602 83.8C198.496 84.36 198.349 84.9333 198.162 85.52C198.002 86.08 197.736 86.5867 197.362 87.04C197.016 87.4933 196.642 87.7867 196.242 87.92C195.789 88.16 195.362 88.24 194.962 88.16C194.802 88.16 194.669 88.12 194.562 88.04C194.509 88.0667 194.469 88.08 194.442 88.08C194.442 88.08 194.416 88.0933 194.362 88.12C193.936 88.2267 193.562 88.1733 193.242 87.96C192.922 87.7467 192.642 87.4667 192.402 87.12C192.189 86.7733 192.002 86.4 191.842 86C191.682 85.6 191.562 85.24 191.482 84.92C191.136 83.72 190.882 82.5067 190.722 81.28C190.589 80.0533 190.482 78.8267 190.402 77.6C190.349 76.6667 190.296 75.7467 190.242 74.84C190.216 73.9333 190.229 73.0267 190.282 72.12C190.309 71.6667 190.309 71.2133 190.282 70.76C190.282 70.3067 190.282 69.8533 190.282 69.4C190.256 68.7067 190.242 68.04 190.242 67.4C190.242 66.7333 190.269 66.0533 190.322 65.36C190.376 64.6933 190.442 64.0267 190.522 63.36C190.602 62.6667 190.736 62 190.922 61.36C191.056 60.8267 191.242 60.3067 191.482 59.8C191.749 59.2933 192.096 58.8667 192.522 58.52C192.922 58.2 193.376 58 193.882 57.92C194.416 57.84 194.909 57.9067 195.362 58.12C195.842 58.36 196.229 58.72 196.522 59.2C196.842 59.68 197.096 60.16 197.282 60.64C197.522 61.28 197.709 61.9467 197.842 62.64C198.002 63.3067 198.122 63.9867 198.202 64.68C198.282 65.3733 198.336 66.0667 198.362 66.76C198.416 67.4267 198.456 68.1067 198.482 68.8C198.482 69.2533 198.469 69.72 198.442 70.2C198.442 70.68 198.442 71.1467 198.442 71.6C198.442 72.16 198.456 72.7333 198.482 73.32C198.536 73.88 198.589 74.44 198.642 75ZM194.802 58.44C194.456 58.3333 194.056 58.3467 193.602 58.48C193.602 58.48 193.589 58.4933 193.562 58.52C193.296 58.6533 193.082 58.8267 192.922 59.04C192.789 59.2533 192.776 59.5067 192.882 59.8C193.016 60.0933 193.202 60.3733 193.442 60.64C193.682 60.88 193.922 61.1067 194.162 61.32C194.402 61.5333 194.642 61.7467 194.882 61.96C195.149 62.1467 195.389 62.3467 195.602 62.56C196.109 63.1467 196.562 63.7867 196.962 64.48C197.362 65.1467 197.669 65.8533 197.882 66.6C197.856 66.2267 197.829 65.8667 197.802 65.52C197.776 65.1733 197.736 64.8133 197.682 64.44C197.602 63.8 197.482 63.1467 197.322 62.48C197.189 61.8133 196.989 61.1733 196.722 60.56C196.536 60.1067 196.282 59.68 195.962 59.28C195.669 58.8533 195.282 58.5733 194.802 58.44Z" fill="#0080BF"/>
</svg>
