<?xml version="1.0" encoding="UTF-8"?>
<svg id="_Слой_2" data-name="Слой 2" xmlns="http://www.w3.org/2000/svg" viewBox="0 0 68.06 68.04">
  <defs>
    <style>
      .cls-1 {
        fill: #fff;
      }

      .cls-2 {
        fill: #15b2ff;
      }
    </style>
  </defs>
  <g id="_Слой_13" data-name="Слой 13">
    <g>
      <rect class="cls-1" x="4.86" y="4.85" width="58.76" height="57.1"/>
      <g>
        <path class="cls-2" d="m25.85,18.64c8.59,11.55,17.28,23.03,25.95,34.53.17.22.31.45.57.82-2.03,0-3.88.02-5.74-.02-.29,0-.65-.28-.84-.53-4.97-6.57-9.93-13.15-14.89-19.73-4.11-5.46-8.22-10.92-12.33-16.38-.13-.17-.25-.36-.49-.71,1.32,0,2.5.13,3.64-.03,1.91-.27,3.01.55,4.12,2.05Z"/>
        <path class="cls-2" d="m68.05,7.32c0-4.04-3.31-7.32-7.35-7.32C42.91,0,25.13,0,7.34,0c-.47,0-.95.05-1.41.14C2.38.9,0,3.84,0,7.48,0,16.32,0,25.15,0,33.99s0,17.74,0,26.61c0,4.14,3.25,7.44,7.33,7.44,17.8,0,35.6,0,53.4,0,4.01,0,7.31-3.3,7.31-7.32,0-17.8,0-35.6,0-53.4Zm-9.53,49.99c-4.5,0-9,0-13.5.01-.6,0-.97-.19-1.33-.67-3.66-4.88-7.34-9.75-11.01-14.62-.17-.22-.34-.44-.57-.73-3.17,3.47-6.26,6.85-9.35,10.24-1.61,1.76-3.22,3.53-4.85,5.28-.2.21-.49.47-.74.47-1.74.04-3.48.02-5.49.02,6.03-6.6,11.9-13.04,17.82-19.51-6.13-8.15-12.23-16.24-18.44-24.5h1.01c4.47,0,8.95,0,13.42-.01.57,0,.91.18,1.25.63,3.52,4.7,7.07,9.39,10.62,14.08.13.18.28.34.49.6.44-.46.87-.89,1.28-1.34,4.11-4.47,8.23-8.94,12.32-13.43.36-.4.71-.54,1.23-.53,1.6.03,3.2,0,5.04,0-5.83,6.36-11.51,12.56-17.25,18.83,6.27,8.34,12.53,16.67,18.89,25.12-.36.03-.6.07-.83.07Z"/>
      </g>
    </g>
  </g>
</svg>